<?xml version="1.0" encoding="UTF-8" standalone="no"?>
<!DOCTYPE svg PUBLIC "-//W3C//DTD SVG 1.1//EN"
 "http://www.w3.org/Graphics/SVG/1.1/DTD/svg11.dtd">
<!-- Generated by graphviz version 2.40.1 (20161225.0304)
 -->
<!-- Title: G Pages: 1 -->
<svg width="1895pt" height="285pt"
 viewBox="0.00 0.00 1895.43 285.00" xmlns="http://www.w3.org/2000/svg" xmlns:xlink="http://www.w3.org/1999/xlink">
<g id="graph0" class="graph" transform="scale(1 1) rotate(0) translate(4 281)">
<title>G</title>
<polygon fill="#ffffff" stroke="transparent" points="-4,4 -4,-281 1891.4285,-281 1891.4285,4 -4,4"/>
<!--  Line14: if (rst==1)  -->
<g id="node1" class="node">
<title> Line14: if (rst==1) </title>
<ellipse fill="#6495ed" stroke="#6495ed" cx="71.0122" cy="-259" rx="60.1594" ry="18"/>
<text text-anchor="middle" x="71.0122" y="-256" font-family="Helvetica,sans-Serif" font-size="10.00" fill="#ffffff"> Line14: if (rst==1) </text>
</g>
<!--  Line16  -->
<g id="node2" class="node">
<title> Line16 </title>
<ellipse fill="#6495ed" stroke="#6495ed" cx="31.0122" cy="-175" rx="31.0244" ry="18"/>
<text text-anchor="middle" x="31.0122" y="-172" font-family="Helvetica,sans-Serif" font-size="10.00" fill="#ffffff"> Line16 </text>
</g>
<!--  Line14: if (rst==1) &#45;&gt; Line16  -->
<g id="edge1" class="edge">
<title> Line14: if (rst==1) &#45;&gt; Line16 </title>
<path fill="none" stroke="#b03060" d="M62.3328,-240.7733C56.5411,-228.6107 48.8609,-212.4823 42.5554,-199.2406"/>
<polygon fill="#b03060" stroke="#b03060" points="39.4005,-192.6155 45.2542,-197.5813 40.9053,-195.7756 42.4101,-198.9356 42.4101,-198.9356 42.4101,-198.9356 40.9053,-195.7756 39.5661,-200.2899 39.4005,-192.6155 39.4005,-192.6155"/>
<text text-anchor="middle" x="61.7857" y="-214" font-family="Times,serif" font-size="10.00" fill="#000080">true</text>
</g>
<!--  Line21  -->
<g id="node3" class="node">
<title> Line21 </title>
<ellipse fill="#6495ed" stroke="#6495ed" cx="111.0122" cy="-175" rx="31.0244" ry="18"/>
<text text-anchor="middle" x="111.0122" y="-172" font-family="Helvetica,sans-Serif" font-size="10.00" fill="#ffffff"> Line21 </text>
</g>
<!--  Line14: if (rst==1) &#45;&gt; Line21  -->
<g id="edge2" class="edge">
<title> Line14: if (rst==1) &#45;&gt; Line21 </title>
<path fill="none" stroke="#b03060" d="M79.6916,-240.7733C85.4833,-228.6107 93.1635,-212.4823 99.469,-199.2406"/>
<polygon fill="#b03060" stroke="#b03060" points="102.6238,-192.6155 102.4583,-200.2899 101.119,-195.7756 99.6142,-198.9356 99.6142,-198.9356 99.6142,-198.9356 101.119,-195.7756 96.7702,-197.5813 102.6238,-192.6155 102.6238,-192.6155"/>
<text text-anchor="middle" x="103.4497" y="-214" font-family="Times,serif" font-size="10.00" fill="#000080">false</text>
</g>
<!--  Line20: case (ps)  -->
<g id="node4" class="node">
<title> Line20: case (ps) </title>
<ellipse fill="#6495ed" stroke="#6495ed" cx="598.0122" cy="-259" rx="59.1558" ry="18"/>
<text text-anchor="middle" x="598.0122" y="-256" font-family="Helvetica,sans-Serif" font-size="10.00" fill="#ffffff"> Line20: case (ps) </text>
</g>
<!--  Line21: S1:  -->
<g id="node5" class="node">
<title> Line21: S1: </title>
<ellipse fill="#6495ed" stroke="#6495ed" cx="203.0122" cy="-175" rx="43.2577" ry="18"/>
<text text-anchor="middle" x="203.0122" y="-172" font-family="Helvetica,sans-Serif" font-size="10.00" fill="#ffffff"> Line21: S1: </text>
</g>
<!--  Line20: case (ps) &#45;&gt; Line21: S1:  -->
<g id="edge3" class="edge">
<title> Line20: case (ps) &#45;&gt; Line21: S1: </title>
<path fill="none" stroke="#b03060" d="M549.1813,-248.6157C472.1963,-232.2442 323.6782,-200.6606 248.696,-184.715"/>
<polygon fill="#b03060" stroke="#b03060" points="241.6741,-183.2218 249.1762,-181.5968 245.0975,-183.9498 248.521,-184.6779 248.521,-184.6779 248.521,-184.6779 245.0975,-183.9498 247.8657,-187.759 241.6741,-183.2218 241.6741,-183.2218"/>
</g>
<!--  Line34: S2:  -->
<g id="node6" class="node">
<title> Line34: S2: </title>
<ellipse fill="#6495ed" stroke="#6495ed" cx="354.0122" cy="-175" rx="43.2577" ry="18"/>
<text text-anchor="middle" x="354.0122" y="-172" font-family="Helvetica,sans-Serif" font-size="10.00" fill="#ffffff"> Line34: S2: </text>
</g>
<!--  Line20: case (ps) &#45;&gt; Line34: S2:  -->
<g id="edge4" class="edge">
<title> Line20: case (ps) &#45;&gt; Line34: S2: </title>
<path fill="none" stroke="#b03060" d="M558.8094,-245.5039C513.7057,-229.9765 440.0149,-204.6075 394.4125,-188.9083"/>
<polygon fill="#b03060" stroke="#b03060" points="387.6192,-186.5696 395.2634,-185.8699 390.9286,-187.709 394.238,-188.8483 394.238,-188.8483 394.238,-188.8483 390.9286,-187.709 393.2126,-191.8267 387.6192,-186.5696 387.6192,-186.5696"/>
</g>
<!--  Line47: S3:  -->
<g id="node7" class="node">
<title> Line47: S3: </title>
<ellipse fill="#6495ed" stroke="#6495ed" cx="482.0122" cy="-175" rx="43.2577" ry="18"/>
<text text-anchor="middle" x="482.0122" y="-172" font-family="Helvetica,sans-Serif" font-size="10.00" fill="#ffffff"> Line47: S3: </text>
</g>
<!--  Line20: case (ps) &#45;&gt; Line47: S3:  -->
<g id="edge5" class="edge">
<title> Line20: case (ps) &#45;&gt; Line47: S3: </title>
<path fill="none" stroke="#b03060" d="M575.0943,-242.4043C556.2245,-228.7399 529.4189,-209.329 509.416,-194.8441"/>
<polygon fill="#b03060" stroke="#b03060" points="503.7054,-190.7089 511.2226,-192.2632 506.5403,-192.7617 509.3751,-194.8145 509.3751,-194.8145 509.3751,-194.8145 506.5403,-192.7617 507.5275,-197.3658 503.7054,-190.7089 503.7054,-190.7089"/>
</g>
<!--  Line60: S4:  -->
<g id="node8" class="node">
<title> Line60: S4: </title>
<ellipse fill="#6495ed" stroke="#6495ed" cx="598.0122" cy="-175" rx="43.2577" ry="18"/>
<text text-anchor="middle" x="598.0122" y="-172" font-family="Helvetica,sans-Serif" font-size="10.00" fill="#ffffff"> Line60: S4: </text>
</g>
<!--  Line20: case (ps) &#45;&gt; Line60: S4:  -->
<g id="edge6" class="edge">
<title> Line20: case (ps) &#45;&gt; Line60: S4: </title>
<path fill="none" stroke="#b03060" d="M598.0122,-240.7733C598.0122,-228.9952 598.0122,-213.4981 598.0122,-200.5049"/>
<polygon fill="#b03060" stroke="#b03060" points="598.0122,-193.1912 601.1623,-200.1911 598.0122,-196.6912 598.0123,-200.1912 598.0123,-200.1912 598.0123,-200.1912 598.0122,-196.6912 594.8623,-200.1912 598.0122,-193.1912 598.0122,-193.1912"/>
</g>
<!--  Line73: S5:  -->
<g id="node9" class="node">
<title> Line73: S5: </title>
<ellipse fill="#6495ed" stroke="#6495ed" cx="733.0122" cy="-175" rx="43.2577" ry="18"/>
<text text-anchor="middle" x="733.0122" y="-172" font-family="Helvetica,sans-Serif" font-size="10.00" fill="#ffffff"> Line73: S5: </text>
</g>
<!--  Line20: case (ps) &#45;&gt; Line73: S5:  -->
<g id="edge7" class="edge">
<title> Line20: case (ps) &#45;&gt; Line73: S5: </title>
<path fill="none" stroke="#b03060" d="M624.0416,-242.804C646.5487,-228.7995 679.0993,-208.5458 702.7602,-193.8234"/>
<polygon fill="#b03060" stroke="#b03060" points="708.8769,-190.0175 704.5977,-196.3902 705.9052,-191.8666 702.9335,-193.7157 702.9335,-193.7157 702.9335,-193.7157 705.9052,-191.8666 701.2693,-191.0411 708.8769,-190.0175 708.8769,-190.0175"/>
</g>
<!--  Line86: S6:  -->
<g id="node10" class="node">
<title> Line86: S6: </title>
<ellipse fill="#6495ed" stroke="#6495ed" cx="859.0122" cy="-175" rx="43.2577" ry="18"/>
<text text-anchor="middle" x="859.0122" y="-172" font-family="Helvetica,sans-Serif" font-size="10.00" fill="#ffffff"> Line86: S6: </text>
</g>
<!--  Line20: case (ps) &#45;&gt; Line86: S6:  -->
<g id="edge8" class="edge">
<title> Line20: case (ps) &#45;&gt; Line86: S6: </title>
<path fill="none" stroke="#b03060" d="M638.7934,-245.875C687.5409,-230.1862 768.6605,-204.0787 817.6593,-188.309"/>
<polygon fill="#b03060" stroke="#b03060" points="824.3534,-186.1546 818.6551,-191.2977 821.0217,-187.2269 817.69,-188.2992 817.69,-188.2992 817.69,-188.2992 821.0217,-187.2269 816.7249,-185.3006 824.3534,-186.1546 824.3534,-186.1546"/>
</g>
<!--  Line98: default:  -->
<g id="node11" class="node">
<title> Line98: default: </title>
<ellipse fill="#6495ed" stroke="#6495ed" cx="1014.0122" cy="-175" rx="54.1471" ry="18"/>
<text text-anchor="middle" x="1014.0122" y="-172" font-family="Helvetica,sans-Serif" font-size="10.00" fill="#ffffff"> Line98: default: </text>
</g>
<!--  Line20: case (ps) &#45;&gt; Line98: default:  -->
<g id="edge9" class="edge">
<title> Line20: case (ps) &#45;&gt; Line98: default: </title>
<path fill="none" stroke="#b03060" d="M647.3665,-249.0342C726.0239,-233.1515 879.2027,-202.2211 960.4374,-185.818"/>
<polygon fill="#b03060" stroke="#b03060" points="967.592,-184.3733 961.354,-188.8466 964.1612,-185.0661 960.7305,-185.7589 960.7305,-185.7589 960.7305,-185.7589 964.1612,-185.0661 960.107,-182.6712 967.592,-184.3733 967.592,-184.3733"/>
</g>
<!--  Line23: if (count&lt;sec7)  -->
<g id="node12" class="node">
<title> Line23: if (count&lt;sec7) </title>
<ellipse fill="#6495ed" stroke="#6495ed" cx="100.0122" cy="-102" rx="73.9027" ry="18"/>
<text text-anchor="middle" x="100.0122" y="-99" font-family="Helvetica,sans-Serif" font-size="10.00" fill="#ffffff"> Line23: if (count&lt;sec7) </text>
</g>
<!--  Line21: S1: &#45;&gt; Line23: if (count&lt;sec7)  -->
<g id="edge10" class="edge">
<title> Line21: S1: &#45;&gt; Line23: if (count&lt;sec7) </title>
<path fill="none" stroke="#b03060" d="M180.9161,-159.3397C166.07,-148.8177 146.3213,-134.821 130.0522,-123.2905"/>
<polygon fill="#b03060" stroke="#b03060" points="124.2313,-119.165 131.7638,-120.6427 127.0868,-121.1888 129.9424,-123.2127 129.9424,-123.2127 129.9424,-123.2127 127.0868,-121.1888 128.1209,-125.7827 124.2313,-119.165 124.2313,-119.165"/>
</g>
<!--  Line36: if (count&lt;sec2)  -->
<g id="node15" class="node">
<title> Line36: if (count&lt;sec2) </title>
<ellipse fill="#6495ed" stroke="#6495ed" cx="266.0122" cy="-102" rx="73.9027" ry="18"/>
<text text-anchor="middle" x="266.0122" y="-99" font-family="Helvetica,sans-Serif" font-size="10.00" fill="#ffffff"> Line36: if (count&lt;sec2) </text>
</g>
<!--  Line34: S2: &#45;&gt; Line36: if (count&lt;sec2)  -->
<g id="edge13" class="edge">
<title> Line34: S2: &#45;&gt; Line36: if (count&lt;sec2) </title>
<path fill="none" stroke="#b03060" d="M334.4821,-158.7989C322.165,-148.5813 306.0967,-135.2519 292.6217,-124.0738"/>
<polygon fill="#b03060" stroke="#b03060" points="287.024,-119.4302 294.4227,-121.4751 289.7178,-121.6649 292.4116,-123.8995 292.4116,-123.8995 292.4116,-123.8995 289.7178,-121.6649 290.4004,-126.3239 287.024,-119.4302 287.024,-119.4302"/>
</g>
<!--  Line49: if (count&lt;sec5)  -->
<g id="node18" class="node">
<title> Line49: if (count&lt;sec5) </title>
<ellipse fill="#6495ed" stroke="#6495ed" cx="432.0122" cy="-102" rx="73.9027" ry="18"/>
<text text-anchor="middle" x="432.0122" y="-99" font-family="Helvetica,sans-Serif" font-size="10.00" fill="#ffffff"> Line49: if (count&lt;sec5) </text>
</g>
<!--  Line47: S3: &#45;&gt; Line49: if (count&lt;sec5)  -->
<g id="edge16" class="edge">
<title> Line47: S3: &#45;&gt; Line49: if (count&lt;sec5) </title>
<path fill="none" stroke="#b03060" d="M469.9086,-157.3287C463.3854,-147.8049 455.2491,-135.9258 448.1895,-125.6188"/>
<polygon fill="#b03060" stroke="#b03060" points="444.1776,-119.7615 450.7322,-123.7567 446.1555,-122.6492 448.1333,-125.5368 448.1333,-125.5368 448.1333,-125.5368 446.1555,-122.6492 445.5344,-127.3168 444.1776,-119.7615 444.1776,-119.7615"/>
</g>
<!--  Line62: if (count&lt;sec2)  -->
<g id="node21" class="node">
<title> Line62: if (count&lt;sec2) </title>
<ellipse fill="#6495ed" stroke="#6495ed" cx="598.0122" cy="-102" rx="73.9027" ry="18"/>
<text text-anchor="middle" x="598.0122" y="-99" font-family="Helvetica,sans-Serif" font-size="10.00" fill="#ffffff"> Line62: if (count&lt;sec2) </text>
</g>
<!--  Line60: S4: &#45;&gt; Line62: if (count&lt;sec2)  -->
<g id="edge19" class="edge">
<title> Line60: S4: &#45;&gt; Line62: if (count&lt;sec2) </title>
<path fill="none" stroke="#b03060" d="M598.0122,-156.9551C598.0122,-148.0054 598.0122,-137.047 598.0122,-127.2769"/>
<polygon fill="#b03060" stroke="#b03060" points="598.0122,-120.0904 601.1623,-127.0903 598.0122,-123.5904 598.0123,-127.0904 598.0123,-127.0904 598.0123,-127.0904 598.0122,-123.5904 594.8623,-127.0904 598.0122,-120.0904 598.0122,-120.0904"/>
</g>
<!--  Line75: if (count&lt;sec3)  -->
<g id="node24" class="node">
<title> Line75: if (count&lt;sec3) </title>
<ellipse fill="#6495ed" stroke="#6495ed" cx="764.0122" cy="-102" rx="73.9027" ry="18"/>
<text text-anchor="middle" x="764.0122" y="-99" font-family="Helvetica,sans-Serif" font-size="10.00" fill="#ffffff"> Line75: if (count&lt;sec3) </text>
</g>
<!--  Line73: S5: &#45;&gt; Line75: if (count&lt;sec3)  -->
<g id="edge22" class="edge">
<title> Line73: S5: &#45;&gt; Line75: if (count&lt;sec3) </title>
<path fill="none" stroke="#b03060" d="M740.6751,-156.9551C744.5502,-147.8299 749.3121,-136.6165 753.5216,-126.7036"/>
<polygon fill="#b03060" stroke="#b03060" points="756.33,-120.0904 756.4932,-127.7648 754.9619,-123.3119 753.5938,-126.5335 753.5938,-126.5335 753.5938,-126.5335 754.9619,-123.3119 750.6944,-125.3022 756.33,-120.0904 756.33,-120.0904"/>
</g>
<!--  Line88: if (count&lt;sec2)  -->
<g id="node27" class="node">
<title> Line88: if (count&lt;sec2) </title>
<ellipse fill="#6495ed" stroke="#6495ed" cx="930.0122" cy="-102" rx="73.9027" ry="18"/>
<text text-anchor="middle" x="930.0122" y="-99" font-family="Helvetica,sans-Serif" font-size="10.00" fill="#ffffff"> Line88: if (count&lt;sec2) </text>
</g>
<!--  Line86: S6: &#45;&gt; Line88: if (count&lt;sec2)  -->
<g id="edge25" class="edge">
<title> Line86: S6: &#45;&gt; Line88: if (count&lt;sec2) </title>
<path fill="none" stroke="#b03060" d="M875.4795,-158.0688C885.1255,-148.1511 897.4332,-135.4967 907.9142,-124.7205"/>
<polygon fill="#b03060" stroke="#b03060" points="912.893,-119.6015 910.2705,-126.8158 910.4527,-122.1105 908.0124,-124.6195 908.0124,-124.6195 908.0124,-124.6195 910.4527,-122.1105 905.7543,-122.4232 912.893,-119.6015 912.893,-119.6015"/>
</g>
<!--  Line100  -->
<g id="node30" class="node">
<title> Line100 </title>
<ellipse fill="#6495ed" stroke="#6495ed" cx="1056.0122" cy="-102" rx="34.2107" ry="18"/>
<text text-anchor="middle" x="1056.0122" y="-99" font-family="Helvetica,sans-Serif" font-size="10.00" fill="#ffffff"> Line100 </text>
</g>
<!--  Line98: default: &#45;&gt; Line100  -->
<g id="edge28" class="edge">
<title> Line98: default: &#45;&gt; Line100 </title>
<path fill="none" stroke="#b03060" d="M1024.3942,-156.9551C1029.8659,-147.4447 1036.6428,-135.6658 1042.5174,-125.4553"/>
<polygon fill="#b03060" stroke="#b03060" points="1046.0388,-119.3347 1045.2783,-126.9731 1044.2934,-122.3684 1042.5479,-125.4021 1042.5479,-125.4021 1042.5479,-125.4021 1044.2934,-122.3684 1039.8175,-123.8312 1046.0388,-119.3347 1046.0388,-119.3347"/>
</g>
<!--  Line25  -->
<g id="node13" class="node">
<title> Line25 </title>
<ellipse fill="#6495ed" stroke="#6495ed" cx="75.0122" cy="-18" rx="31.0244" ry="18"/>
<text text-anchor="middle" x="75.0122" y="-15" font-family="Helvetica,sans-Serif" font-size="10.00" fill="#ffffff"> Line25 </text>
</g>
<!--  Line23: if (count&lt;sec7) &#45;&gt; Line25  -->
<g id="edge11" class="edge">
<title> Line23: if (count&lt;sec7) &#45;&gt; Line25 </title>
<path fill="none" stroke="#b03060" d="M94.5876,-83.7733C91.0252,-71.8037 86.3197,-55.9931 82.4149,-42.8732"/>
<polygon fill="#b03060" stroke="#b03060" points="80.3403,-35.9026 85.3563,-41.7132 81.3388,-39.2572 82.3372,-42.6118 82.3372,-42.6118 82.3372,-42.6118 81.3388,-39.2572 79.3181,-43.5104 80.3403,-35.9026 80.3403,-35.9026"/>
<text text-anchor="middle" x="96.7857" y="-57" font-family="Times,serif" font-size="10.00" fill="#000080">true</text>
</g>
<!--  Line30  -->
<g id="node14" class="node">
<title> Line30 </title>
<ellipse fill="#6495ed" stroke="#6495ed" cx="155.0122" cy="-18" rx="31.0244" ry="18"/>
<text text-anchor="middle" x="155.0122" y="-15" font-family="Helvetica,sans-Serif" font-size="10.00" fill="#ffffff"> Line30 </text>
</g>
<!--  Line23: if (count&lt;sec7) &#45;&gt; Line30  -->
<g id="edge12" class="edge">
<title> Line23: if (count&lt;sec7) &#45;&gt; Line30 </title>
<path fill="none" stroke="#b03060" d="M111.6763,-84.1858C119.9344,-71.5734 131.0827,-54.5469 140.0038,-40.9219"/>
<polygon fill="#b03060" stroke="#b03060" points="143.9276,-34.9292 142.7284,-42.5111 142.0103,-37.8573 140.0931,-40.7855 140.0931,-40.7855 140.0931,-40.7855 142.0103,-37.8573 137.4577,-39.06 143.9276,-34.9292 143.9276,-34.9292"/>
<text text-anchor="middle" x="140.4497" y="-57" font-family="Times,serif" font-size="10.00" fill="#000080">false</text>
</g>
<!--  Line38  -->
<g id="node16" class="node">
<title> Line38 </title>
<ellipse fill="#6495ed" stroke="#6495ed" cx="250.0122" cy="-18" rx="31.0244" ry="18"/>
<text text-anchor="middle" x="250.0122" y="-15" font-family="Helvetica,sans-Serif" font-size="10.00" fill="#ffffff"> Line38 </text>
</g>
<!--  Line36: if (count&lt;sec2) &#45;&gt; Line38  -->
<g id="edge14" class="edge">
<title> Line36: if (count&lt;sec2) &#45;&gt; Line38 </title>
<path fill="none" stroke="#b03060" d="M262.5404,-83.7733C260.2605,-71.8037 257.249,-55.9931 254.7499,-42.8732"/>
<polygon fill="#b03060" stroke="#b03060" points="253.4222,-35.9026 257.8264,-42.1895 254.0771,-39.3408 254.7321,-42.779 254.7321,-42.779 254.7321,-42.779 254.0771,-39.3408 251.6377,-43.3684 253.4222,-35.9026 253.4222,-35.9026"/>
<text text-anchor="middle" x="266.7857" y="-57" font-family="Times,serif" font-size="10.00" fill="#000080">true</text>
</g>
<!--  Line43  -->
<g id="node17" class="node">
<title> Line43 </title>
<ellipse fill="#6495ed" stroke="#6495ed" cx="330.0122" cy="-18" rx="31.0244" ry="18"/>
<text text-anchor="middle" x="330.0122" y="-15" font-family="Helvetica,sans-Serif" font-size="10.00" fill="#ffffff"> Line43 </text>
</g>
<!--  Line36: if (count&lt;sec2) &#45;&gt; Line43  -->
<g id="edge15" class="edge">
<title> Line36: if (count&lt;sec2) &#45;&gt; Line43 </title>
<path fill="none" stroke="#b03060" d="M279.5849,-84.1858C289.3452,-71.3754 302.5749,-54.0115 313.0346,-40.283"/>
<polygon fill="#b03060" stroke="#b03060" points="317.3296,-34.6459 315.5929,-42.123 315.2084,-37.4299 313.0873,-40.2139 313.0873,-40.2139 313.0873,-40.2139 315.2084,-37.4299 310.5817,-38.3049 317.3296,-34.6459 317.3296,-34.6459"/>
<text text-anchor="middle" x="311.4497" y="-57" font-family="Times,serif" font-size="10.00" fill="#000080">false</text>
</g>
<!--  Line51  -->
<g id="node19" class="node">
<title> Line51 </title>
<ellipse fill="#6495ed" stroke="#6495ed" cx="421.0122" cy="-18" rx="31.0244" ry="18"/>
<text text-anchor="middle" x="421.0122" y="-15" font-family="Helvetica,sans-Serif" font-size="10.00" fill="#ffffff"> Line51 </text>
</g>
<!--  Line49: if (count&lt;sec5) &#45;&gt; Line51  -->
<g id="edge17" class="edge">
<title> Line49: if (count&lt;sec5) &#45;&gt; Line51 </title>
<path fill="none" stroke="#b03060" d="M429.6254,-83.7733C428.0686,-71.8851 426.0156,-56.2081 424.3045,-43.1413"/>
<polygon fill="#b03060" stroke="#b03060" points="423.3944,-36.1912 427.4267,-42.7229 423.8489,-39.6615 424.3034,-43.1319 424.3034,-43.1319 424.3034,-43.1319 423.8489,-39.6615 421.18,-43.541 423.3944,-36.1912 423.3944,-36.1912"/>
<text text-anchor="middle" x="435.7857" y="-57" font-family="Times,serif" font-size="10.00" fill="#000080">true</text>
</g>
<!--  Line56  -->
<g id="node20" class="node">
<title> Line56 </title>
<ellipse fill="#6495ed" stroke="#6495ed" cx="501.0122" cy="-18" rx="31.0244" ry="18"/>
<text text-anchor="middle" x="501.0122" y="-15" font-family="Helvetica,sans-Serif" font-size="10.00" fill="#ffffff"> Line56 </text>
</g>
<!--  Line49: if (count&lt;sec5) &#45;&gt; Line56  -->
<g id="edge18" class="edge">
<title> Line49: if (count&lt;sec5) &#45;&gt; Line56 </title>
<path fill="none" stroke="#b03060" d="M446.6453,-84.1858C457.2373,-71.2912 471.6192,-53.7828 482.9304,-40.0126"/>
<polygon fill="#b03060" stroke="#b03060" points="487.5701,-34.3642 485.561,-41.7728 485.3485,-37.0688 483.1269,-39.7733 483.1269,-39.7733 483.1269,-39.7733 485.3485,-37.0688 480.6928,-37.7739 487.5701,-34.3642 487.5701,-34.3642"/>
<text text-anchor="middle" x="480.4497" y="-57" font-family="Times,serif" font-size="10.00" fill="#000080">false</text>
</g>
<!--  Line64  -->
<g id="node22" class="node">
<title> Line64 </title>
<ellipse fill="#6495ed" stroke="#6495ed" cx="589.0122" cy="-18" rx="31.0244" ry="18"/>
<text text-anchor="middle" x="589.0122" y="-15" font-family="Helvetica,sans-Serif" font-size="10.00" fill="#ffffff"> Line64 </text>
</g>
<!--  Line62: if (count&lt;sec2) &#45;&gt; Line64  -->
<g id="edge20" class="edge">
<title> Line62: if (count&lt;sec2) &#45;&gt; Line64 </title>
<path fill="none" stroke="#b03060" d="M596.0593,-83.7733C594.7974,-71.9952 593.137,-56.4981 591.7449,-43.5049"/>
<polygon fill="#b03060" stroke="#b03060" points="590.9612,-36.1912 594.8391,-42.8157 591.3342,-39.6713 591.7071,-43.1513 591.7071,-43.1513 591.7071,-43.1513 591.3342,-39.6713 588.575,-43.487 590.9612,-36.1912 590.9612,-36.1912"/>
<text text-anchor="middle" x="602.7857" y="-57" font-family="Times,serif" font-size="10.00" fill="#000080">true</text>
</g>
<!--  Line69  -->
<g id="node23" class="node">
<title> Line69 </title>
<ellipse fill="#6495ed" stroke="#6495ed" cx="669.0122" cy="-18" rx="31.0244" ry="18"/>
<text text-anchor="middle" x="669.0122" y="-15" font-family="Helvetica,sans-Serif" font-size="10.00" fill="#ffffff"> Line69 </text>
</g>
<!--  Line62: if (count&lt;sec2) &#45;&gt; Line69  -->
<g id="edge21" class="edge">
<title> Line62: if (count&lt;sec2) &#45;&gt; Line69 </title>
<path fill="none" stroke="#b03060" d="M613.0695,-84.1858C623.9685,-71.2912 638.7672,-53.7828 650.4063,-40.0126"/>
<polygon fill="#b03060" stroke="#b03060" points="655.1805,-34.3642 653.0675,-41.7438 652.9211,-37.0373 650.6617,-39.7104 650.6617,-39.7104 650.6617,-39.7104 652.9211,-37.0373 648.256,-37.6769 655.1805,-34.3642 655.1805,-34.3642"/>
<text text-anchor="middle" x="647.4497" y="-57" font-family="Times,serif" font-size="10.00" fill="#000080">false</text>
</g>
<!--  Line77  -->
<g id="node25" class="node">
<title> Line77 </title>
<ellipse fill="#6495ed" stroke="#6495ed" cx="756.0122" cy="-18" rx="31.0244" ry="18"/>
<text text-anchor="middle" x="756.0122" y="-15" font-family="Helvetica,sans-Serif" font-size="10.00" fill="#ffffff"> Line77 </text>
</g>
<!--  Line75: if (count&lt;sec3) &#45;&gt; Line77  -->
<g id="edge23" class="edge">
<title> Line75: if (count&lt;sec3) &#45;&gt; Line77 </title>
<path fill="none" stroke="#b03060" d="M762.2763,-83.7733C761.1546,-71.9952 759.6787,-56.4981 758.4412,-43.5049"/>
<polygon fill="#b03060" stroke="#b03060" points="757.7447,-36.1912 761.5442,-42.861 758.0766,-39.6754 758.4084,-43.1596 758.4084,-43.1596 758.4084,-43.1596 758.0766,-39.6754 755.2726,-43.4583 757.7447,-36.1912 757.7447,-36.1912"/>
<text text-anchor="middle" x="768.7857" y="-57" font-family="Times,serif" font-size="10.00" fill="#000080">true</text>
</g>
<!--  Line82  -->
<g id="node26" class="node">
<title> Line82 </title>
<ellipse fill="#6495ed" stroke="#6495ed" cx="836.0122" cy="-18" rx="31.0244" ry="18"/>
<text text-anchor="middle" x="836.0122" y="-15" font-family="Helvetica,sans-Serif" font-size="10.00" fill="#ffffff"> Line82 </text>
</g>
<!--  Line75: if (count&lt;sec3) &#45;&gt; Line82  -->
<g id="edge24" class="edge">
<title> Line75: if (count&lt;sec3) &#45;&gt; Line82 </title>
<path fill="none" stroke="#b03060" d="M779.2815,-84.1858C790.334,-71.2912 805.3412,-53.7828 817.1443,-40.0126"/>
<polygon fill="#b03060" stroke="#b03060" points="821.9857,-34.3642 819.8218,-41.7291 819.7079,-37.0217 817.4301,-39.6791 817.4301,-39.6791 817.4301,-39.6791 819.7079,-37.0217 815.0385,-37.6291 821.9857,-34.3642 821.9857,-34.3642"/>
<text text-anchor="middle" x="814.4497" y="-57" font-family="Times,serif" font-size="10.00" fill="#000080">false</text>
</g>
<!--  Line90  -->
<g id="node28" class="node">
<title> Line90 </title>
<ellipse fill="#6495ed" stroke="#6495ed" cx="923.0122" cy="-18" rx="31.0244" ry="18"/>
<text text-anchor="middle" x="923.0122" y="-15" font-family="Helvetica,sans-Serif" font-size="10.00" fill="#ffffff"> Line90 </text>
</g>
<!--  Line88: if (count&lt;sec2) &#45;&gt; Line90  -->
<g id="edge26" class="edge">
<title> Line88: if (count&lt;sec2) &#45;&gt; Line90 </title>
<path fill="none" stroke="#b03060" d="M928.4933,-83.7733C927.5118,-71.9952 926.2204,-56.4981 925.1376,-43.5049"/>
<polygon fill="#b03060" stroke="#b03060" points="924.5281,-36.1912 928.2486,-42.9054 924.8188,-39.6791 925.1095,-43.167 925.1095,-43.167 925.1095,-43.167 924.8188,-39.6791 921.9704,-43.4286 924.5281,-36.1912 924.5281,-36.1912"/>
<text text-anchor="middle" x="934.7857" y="-57" font-family="Times,serif" font-size="10.00" fill="#000080">true</text>
</g>
<!--  Line95  -->
<g id="node29" class="node">
<title> Line95 </title>
<ellipse fill="#6495ed" stroke="#6495ed" cx="1003.0122" cy="-18" rx="31.0244" ry="18"/>
<text text-anchor="middle" x="1003.0122" y="-15" font-family="Helvetica,sans-Serif" font-size="10.00" fill="#ffffff"> Line95 </text>
</g>
<!--  Line88: if (count&lt;sec2) &#45;&gt; Line95  -->
<g id="edge27" class="edge">
<title> Line88: if (count&lt;sec2) &#45;&gt; Line95 </title>
<path fill="none" stroke="#b03060" d="M945.4936,-84.1858C956.8736,-71.091 972.3886,-53.2381 984.4371,-39.374"/>
<polygon fill="#b03060" stroke="#b03060" points="989.0342,-34.0842 986.8201,-41.4341 986.7384,-36.7261 984.4425,-39.3679 984.4425,-39.3679 984.4425,-39.3679 986.7384,-36.7261 982.0649,-37.3016 989.0342,-34.0842 989.0342,-34.0842"/>
<text text-anchor="middle" x="980.4497" y="-57" font-family="Times,serif" font-size="10.00" fill="#000080">false</text>
</g>
<!--  Line106: case (ps)  -->
<g id="node31" class="node">
<title> Line106: case (ps) </title>
<ellipse fill="#6495ed" stroke="#6495ed" cx="1486.0122" cy="-259" rx="62.3414" ry="18"/>
<text text-anchor="middle" x="1486.0122" y="-256" font-family="Helvetica,sans-Serif" font-size="10.00" fill="#ffffff"> Line106: case (ps) </text>
</g>
<!--  Line107: S1:  -->
<g id="node32" class="node">
<title> Line107: S1: </title>
<ellipse fill="#6495ed" stroke="#6495ed" cx="1153.0122" cy="-175" rx="46.9441" ry="18"/>
<text text-anchor="middle" x="1153.0122" y="-172" font-family="Helvetica,sans-Serif" font-size="10.00" fill="#ffffff"> Line107: S1: </text>
</g>
<!--  Line106: case (ps) &#45;&gt; Line107: S1:  -->
<g id="edge29" class="edge">
<title> Line106: case (ps) &#45;&gt; Line107: S1: </title>
<path fill="none" stroke="#b03060" d="M1435.4667,-248.3261C1379.507,-236.2016 1286.7925,-215.2014 1208.0122,-193 1203.7603,-191.8018 1199.3465,-190.4841 1194.9518,-189.1235"/>
<polygon fill="#b03060" stroke="#b03060" points="1188.0877,-186.9609 1195.7108,-186.06 1191.426,-188.0126 1194.7642,-189.0644 1194.7642,-189.0644 1194.7642,-189.0644 1191.426,-188.0126 1193.8176,-192.0688 1188.0877,-186.9609 1188.0877,-186.9609"/>
</g>
<!--  Line114: S2:  -->
<g id="node33" class="node">
<title> Line114: S2: </title>
<ellipse fill="#6495ed" stroke="#6495ed" cx="1264.0122" cy="-175" rx="46.9441" ry="18"/>
<text text-anchor="middle" x="1264.0122" y="-172" font-family="Helvetica,sans-Serif" font-size="10.00" fill="#ffffff"> Line114: S2: </text>
</g>
<!--  Line106: case (ps) &#45;&gt; Line114: S2:  -->
<g id="edge30" class="edge">
<title> Line106: case (ps) &#45;&gt; Line114: S2: </title>
<path fill="none" stroke="#b03060" d="M1448.1013,-244.6553C1407.9816,-229.4749 1344.9301,-205.6176 1304.0292,-190.1416"/>
<polygon fill="#b03060" stroke="#b03060" points="1297.4121,-187.6378 1305.0739,-187.1689 1300.6856,-188.8764 1303.9591,-190.1151 1303.9591,-190.1151 1303.9591,-190.1151 1300.6856,-188.8764 1302.8443,-193.0613 1297.4121,-187.6378 1297.4121,-187.6378"/>
</g>
<!--  Line121: S3:  -->
<g id="node34" class="node">
<title> Line121: S3: </title>
<ellipse fill="#6495ed" stroke="#6495ed" cx="1375.0122" cy="-175" rx="46.9441" ry="18"/>
<text text-anchor="middle" x="1375.0122" y="-172" font-family="Helvetica,sans-Serif" font-size="10.00" fill="#ffffff"> Line121: S3: </text>
</g>
<!--  Line106: case (ps) &#45;&gt; Line121: S3:  -->
<g id="edge31" class="edge">
<title> Line106: case (ps) &#45;&gt; Line121: S3: </title>
<path fill="none" stroke="#b03060" d="M1463.5497,-242.0013C1445.7527,-228.5333 1420.8296,-209.6726 1401.959,-195.3922"/>
<polygon fill="#b03060" stroke="#b03060" points="1396.3115,-191.1184 1403.7942,-192.8307 1399.1024,-193.2304 1401.8933,-195.3425 1401.8933,-195.3425 1401.8933,-195.3425 1399.1024,-193.2304 1399.9925,-197.8544 1396.3115,-191.1184 1396.3115,-191.1184"/>
</g>
<!--  Line128: S4:  -->
<g id="node35" class="node">
<title> Line128: S4: </title>
<ellipse fill="#6495ed" stroke="#6495ed" cx="1486.0122" cy="-175" rx="46.9441" ry="18"/>
<text text-anchor="middle" x="1486.0122" y="-172" font-family="Helvetica,sans-Serif" font-size="10.00" fill="#ffffff"> Line128: S4: </text>
</g>
<!--  Line106: case (ps) &#45;&gt; Line128: S4:  -->
<g id="edge32" class="edge">
<title> Line106: case (ps) &#45;&gt; Line128: S4: </title>
<path fill="none" stroke="#b03060" d="M1486.0122,-240.7733C1486.0122,-228.9952 1486.0122,-213.4981 1486.0122,-200.5049"/>
<polygon fill="#b03060" stroke="#b03060" points="1486.0122,-193.1912 1489.1623,-200.1911 1486.0122,-196.6912 1486.0123,-200.1912 1486.0123,-200.1912 1486.0123,-200.1912 1486.0122,-196.6912 1482.8623,-200.1912 1486.0122,-193.1912 1486.0122,-193.1912"/>
</g>
<!--  Line135: S5:  -->
<g id="node36" class="node">
<title> Line135: S5: </title>
<ellipse fill="#6495ed" stroke="#6495ed" cx="1597.0122" cy="-175" rx="46.9441" ry="18"/>
<text text-anchor="middle" x="1597.0122" y="-172" font-family="Helvetica,sans-Serif" font-size="10.00" fill="#ffffff"> Line135: S5: </text>
</g>
<!--  Line106: case (ps) &#45;&gt; Line135: S5:  -->
<g id="edge33" class="edge">
<title> Line106: case (ps) &#45;&gt; Line135: S5: </title>
<path fill="none" stroke="#b03060" d="M1508.4747,-242.0013C1526.2717,-228.5333 1551.1948,-209.6726 1570.0654,-195.3922"/>
<polygon fill="#b03060" stroke="#b03060" points="1575.7129,-191.1184 1572.0319,-197.8544 1572.922,-193.2304 1570.131,-195.3425 1570.131,-195.3425 1570.131,-195.3425 1572.922,-193.2304 1568.2302,-192.8307 1575.7129,-191.1184 1575.7129,-191.1184"/>
</g>
<!--  Line142: S6:  -->
<g id="node37" class="node">
<title> Line142: S6: </title>
<ellipse fill="#6495ed" stroke="#6495ed" cx="1708.0122" cy="-175" rx="46.9441" ry="18"/>
<text text-anchor="middle" x="1708.0122" y="-172" font-family="Helvetica,sans-Serif" font-size="10.00" fill="#ffffff"> Line142: S6: </text>
</g>
<!--  Line106: case (ps) &#45;&gt; Line142: S6:  -->
<g id="edge34" class="edge">
<title> Line106: case (ps) &#45;&gt; Line142: S6: </title>
<path fill="none" stroke="#b03060" d="M1523.9231,-244.6553C1564.0428,-229.4749 1627.0943,-205.6176 1667.9952,-190.1416"/>
<polygon fill="#b03060" stroke="#b03060" points="1674.6123,-187.6378 1669.1801,-193.0613 1671.3388,-188.8764 1668.0653,-190.1151 1668.0653,-190.1151 1668.0653,-190.1151 1671.3388,-188.8764 1666.9505,-187.1689 1674.6123,-187.6378 1674.6123,-187.6378"/>
</g>
<!--  Line149: default:  -->
<g id="node38" class="node">
<title> Line149: default: </title>
<ellipse fill="#6495ed" stroke="#6495ed" cx="1830.0122" cy="-175" rx="57.3328" ry="18"/>
<text text-anchor="middle" x="1830.0122" y="-172" font-family="Helvetica,sans-Serif" font-size="10.00" fill="#ffffff"> Line149: default: </text>
</g>
<!--  Line106: case (ps) &#45;&gt; Line149: default:  -->
<g id="edge35" class="edge">
<title> Line106: case (ps) &#45;&gt; Line149: default: </title>
<path fill="none" stroke="#b03060" d="M1535.3464,-247.8078C1591.0176,-235.0572 1684.2205,-213.3464 1764.0122,-193 1769.191,-191.6794 1774.5885,-190.2669 1779.9678,-188.8356"/>
<polygon fill="#b03060" stroke="#b03060" points="1786.7539,-187.0181 1780.8072,-191.8719 1783.3731,-187.9236 1779.9923,-188.8292 1779.9923,-188.8292 1779.9923,-188.8292 1783.3731,-187.9236 1779.1773,-185.7864 1786.7539,-187.0181 1786.7539,-187.0181"/>
</g>
<!--  Line109  -->
<g id="node39" class="node">
<title> Line109 </title>
<ellipse fill="#6495ed" stroke="#6495ed" cx="1153.0122" cy="-102" rx="34.2107" ry="18"/>
<text text-anchor="middle" x="1153.0122" y="-99" font-family="Helvetica,sans-Serif" font-size="10.00" fill="#ffffff"> Line109 </text>
</g>
<!--  Line107: S1: &#45;&gt; Line109  -->
<g id="edge36" class="edge">
<title> Line107: S1: &#45;&gt; Line109 </title>
<path fill="none" stroke="#b03060" d="M1153.0122,-156.9551C1153.0122,-148.0054 1153.0122,-137.047 1153.0122,-127.2769"/>
<polygon fill="#b03060" stroke="#b03060" points="1153.0122,-120.0904 1156.1623,-127.0903 1153.0122,-123.5904 1153.0123,-127.0904 1153.0123,-127.0904 1153.0123,-127.0904 1153.0122,-123.5904 1149.8623,-127.0904 1153.0122,-120.0904 1153.0122,-120.0904"/>
</g>
<!--  Line116  -->
<g id="node40" class="node">
<title> Line116 </title>
<ellipse fill="#6495ed" stroke="#6495ed" cx="1264.0122" cy="-102" rx="34.2107" ry="18"/>
<text text-anchor="middle" x="1264.0122" y="-99" font-family="Helvetica,sans-Serif" font-size="10.00" fill="#ffffff"> Line116 </text>
</g>
<!--  Line114: S2: &#45;&gt; Line116  -->
<g id="edge37" class="edge">
<title> Line114: S2: &#45;&gt; Line116 </title>
<path fill="none" stroke="#b03060" d="M1264.0122,-156.9551C1264.0122,-148.0054 1264.0122,-137.047 1264.0122,-127.2769"/>
<polygon fill="#b03060" stroke="#b03060" points="1264.0122,-120.0904 1267.1623,-127.0903 1264.0122,-123.5904 1264.0123,-127.0904 1264.0123,-127.0904 1264.0123,-127.0904 1264.0122,-123.5904 1260.8623,-127.0904 1264.0122,-120.0904 1264.0122,-120.0904"/>
</g>
<!--  Line123  -->
<g id="node41" class="node">
<title> Line123 </title>
<ellipse fill="#6495ed" stroke="#6495ed" cx="1375.0122" cy="-102" rx="34.2107" ry="18"/>
<text text-anchor="middle" x="1375.0122" y="-99" font-family="Helvetica,sans-Serif" font-size="10.00" fill="#ffffff"> Line123 </text>
</g>
<!--  Line121: S3: &#45;&gt; Line123  -->
<g id="edge38" class="edge">
<title> Line121: S3: &#45;&gt; Line123 </title>
<path fill="none" stroke="#b03060" d="M1375.0122,-156.9551C1375.0122,-148.0054 1375.0122,-137.047 1375.0122,-127.2769"/>
<polygon fill="#b03060" stroke="#b03060" points="1375.0122,-120.0904 1378.1623,-127.0903 1375.0122,-123.5904 1375.0123,-127.0904 1375.0123,-127.0904 1375.0123,-127.0904 1375.0122,-123.5904 1371.8623,-127.0904 1375.0122,-120.0904 1375.0122,-120.0904"/>
</g>
<!--  Line130  -->
<g id="node42" class="node">
<title> Line130 </title>
<ellipse fill="#6495ed" stroke="#6495ed" cx="1486.0122" cy="-102" rx="34.2107" ry="18"/>
<text text-anchor="middle" x="1486.0122" y="-99" font-family="Helvetica,sans-Serif" font-size="10.00" fill="#ffffff"> Line130 </text>
</g>
<!--  Line128: S4: &#45;&gt; Line130  -->
<g id="edge39" class="edge">
<title> Line128: S4: &#45;&gt; Line130 </title>
<path fill="none" stroke="#b03060" d="M1486.0122,-156.9551C1486.0122,-148.0054 1486.0122,-137.047 1486.0122,-127.2769"/>
<polygon fill="#b03060" stroke="#b03060" points="1486.0122,-120.0904 1489.1623,-127.0903 1486.0122,-123.5904 1486.0123,-127.0904 1486.0123,-127.0904 1486.0123,-127.0904 1486.0122,-123.5904 1482.8623,-127.0904 1486.0122,-120.0904 1486.0122,-120.0904"/>
</g>
<!--  Line137  -->
<g id="node43" class="node">
<title> Line137 </title>
<ellipse fill="#6495ed" stroke="#6495ed" cx="1597.0122" cy="-102" rx="34.2107" ry="18"/>
<text text-anchor="middle" x="1597.0122" y="-99" font-family="Helvetica,sans-Serif" font-size="10.00" fill="#ffffff"> Line137 </text>
</g>
<!--  Line135: S5: &#45;&gt; Line137  -->
<g id="edge40" class="edge">
<title> Line135: S5: &#45;&gt; Line137 </title>
<path fill="none" stroke="#b03060" d="M1597.0122,-156.9551C1597.0122,-148.0054 1597.0122,-137.047 1597.0122,-127.2769"/>
<polygon fill="#b03060" stroke="#b03060" points="1597.0122,-120.0904 1600.1623,-127.0903 1597.0122,-123.5904 1597.0123,-127.0904 1597.0123,-127.0904 1597.0123,-127.0904 1597.0122,-123.5904 1593.8623,-127.0904 1597.0122,-120.0904 1597.0122,-120.0904"/>
</g>
<!--  Line144  -->
<g id="node44" class="node">
<title> Line144 </title>
<ellipse fill="#6495ed" stroke="#6495ed" cx="1708.0122" cy="-102" rx="34.2107" ry="18"/>
<text text-anchor="middle" x="1708.0122" y="-99" font-family="Helvetica,sans-Serif" font-size="10.00" fill="#ffffff"> Line144 </text>
</g>
<!--  Line142: S6: &#45;&gt; Line144  -->
<g id="edge41" class="edge">
<title> Line142: S6: &#45;&gt; Line144 </title>
<path fill="none" stroke="#b03060" d="M1708.0122,-156.9551C1708.0122,-148.0054 1708.0122,-137.047 1708.0122,-127.2769"/>
<polygon fill="#b03060" stroke="#b03060" points="1708.0122,-120.0904 1711.1623,-127.0903 1708.0122,-123.5904 1708.0123,-127.0904 1708.0123,-127.0904 1708.0123,-127.0904 1708.0122,-123.5904 1704.8623,-127.0904 1708.0122,-120.0904 1708.0122,-120.0904"/>
</g>
<!--  Line151  -->
<g id="node45" class="node">
<title> Line151 </title>
<ellipse fill="#6495ed" stroke="#6495ed" cx="1830.0122" cy="-102" rx="34.2107" ry="18"/>
<text text-anchor="middle" x="1830.0122" y="-99" font-family="Helvetica,sans-Serif" font-size="10.00" fill="#ffffff"> Line151 </text>
</g>
<!--  Line149: default: &#45;&gt; Line151  -->
<g id="edge42" class="edge">
<title> Line149: default: &#45;&gt; Line151 </title>
<path fill="none" stroke="#b03060" d="M1830.0122,-156.9551C1830.0122,-148.0054 1830.0122,-137.047 1830.0122,-127.2769"/>
<polygon fill="#b03060" stroke="#b03060" points="1830.0122,-120.0904 1833.1623,-127.0903 1830.0122,-123.5904 1830.0123,-127.0904 1830.0123,-127.0904 1830.0123,-127.0904 1830.0122,-123.5904 1826.8623,-127.0904 1830.0122,-120.0904 1830.0122,-120.0904"/>
</g>
</g>
</svg>
