<?xml version="1.0" encoding="UTF-8" standalone="no"?>
<!DOCTYPE svg PUBLIC "-//W3C//DTD SVG 1.1//EN"
 "http://www.w3.org/Graphics/SVG/1.1/DTD/svg11.dtd">
<!-- Generated by graphviz version 2.40.1 (20161225.0304)
 -->
<!-- Title: G Pages: 1 -->
<svg width="2423pt" height="358pt"
 viewBox="0.00 0.00 2422.89 358.00" xmlns="http://www.w3.org/2000/svg" xmlns:xlink="http://www.w3.org/1999/xlink">
<g id="graph0" class="graph" transform="scale(1 1) rotate(0) translate(4 354)">
<title>G</title>
<polygon fill="#ffffff" stroke="transparent" points="-4,4 -4,-354 2418.8874,-354 2418.8874,4 -4,4"/>
<!--  Line17: if (rst_a)  -->
<g id="node1" class="node">
<title> Line17: if (rst_a) </title>
<ellipse fill="#6495ed" stroke="#6495ed" cx="716.806" cy="-332" rx="56.3003" ry="18"/>
<text text-anchor="middle" x="716.806" y="-329" font-family="Helvetica,sans-Serif" font-size="10.00" fill="#ffffff"> Line17: if (rst_a) </text>
</g>
<!--  Line19  -->
<g id="node2" class="node">
<title> Line19 </title>
<ellipse fill="#6495ed" stroke="#6495ed" cx="658.806" cy="-248" rx="31.0244" ry="18"/>
<text text-anchor="middle" x="658.806" y="-245" font-family="Helvetica,sans-Serif" font-size="10.00" fill="#ffffff"> Line19 </text>
</g>
<!--  Line17: if (rst_a) &#45;&gt; Line19  -->
<g id="edge1" class="edge">
<title> Line17: if (rst_a) &#45;&gt; Line19 </title>
<path fill="none" stroke="#b03060" d="M704.5057,-314.1858C695.7971,-301.5734 684.0408,-284.5469 674.633,-270.9219"/>
<polygon fill="#b03060" stroke="#b03060" points="670.4952,-264.9292 677.0647,-268.8996 672.4839,-267.8093 674.4726,-270.6895 674.4726,-270.6895 674.4726,-270.6895 672.4839,-267.8093 671.8804,-272.4793 670.4952,-264.9292 670.4952,-264.9292"/>
<text text-anchor="middle" x="699.5795" y="-287" font-family="Times,serif" font-size="10.00" fill="#000080">true</text>
</g>
<!--  Line24: case (state)  -->
<g id="node3" class="node">
<title> Line24: case (state) </title>
<ellipse fill="#6495ed" stroke="#6495ed" cx="773.806" cy="-248" rx="65.5267" ry="18"/>
<text text-anchor="middle" x="773.806" y="-245" font-family="Helvetica,sans-Serif" font-size="10.00" fill="#ffffff"> Line24: case (state) </text>
</g>
<!--  Line17: if (rst_a) &#45;&gt; Line24: case (state)  -->
<g id="edge2" class="edge">
<title> Line17: if (rst_a) &#45;&gt; Line24: case (state) </title>
<path fill="none" stroke="#b03060" d="M728.8943,-314.1858C737.2826,-301.8239 748.5484,-285.2217 757.6981,-271.7379"/>
<polygon fill="#b03060" stroke="#b03060" points="761.7352,-265.7886 760.4112,-273.3497 759.7699,-268.6847 757.8047,-271.5809 757.8047,-271.5809 757.8047,-271.5809 759.7699,-268.6847 755.1981,-269.8122 761.7352,-265.7886 761.7352,-265.7886"/>
<text text-anchor="middle" x="758.2435" y="-287" font-family="Times,serif" font-size="10.00" fill="#000080">false</text>
</g>
<!--  Line25: north:  -->
<g id="node4" class="node">
<title> Line25: north: </title>
<ellipse fill="#6495ed" stroke="#6495ed" cx="275.806" cy="-175" rx="49.9551" ry="18"/>
<text text-anchor="middle" x="275.806" y="-172" font-family="Helvetica,sans-Serif" font-size="10.00" fill="#ffffff"> Line25: north: </text>
</g>
<!--  Line24: case (state) &#45;&gt; Line25: north:  -->
<g id="edge3" class="edge">
<title> Line24: case (state) &#45;&gt; Line25: north: </title>
<path fill="none" stroke="#b03060" d="M725.9901,-235.5207C717.0018,-233.4608 707.6499,-231.5088 698.806,-230 540.2541,-202.9497 496.7435,-223.4333 338.806,-193 332.8651,-191.8552 326.6734,-190.4092 320.5915,-188.8364"/>
<polygon fill="#b03060" stroke="#b03060" points="313.524,-186.9424 321.1008,-185.7118 316.9047,-187.8484 320.2854,-188.7545 320.2854,-188.7545 320.2854,-188.7545 316.9047,-187.8484 319.47,-191.7971 313.524,-186.9424 313.524,-186.9424"/>
</g>
<!--  Line38: north_y:  -->
<g id="node5" class="node">
<title> Line38: north_y: </title>
<ellipse fill="#6495ed" stroke="#6495ed" cx="403.806" cy="-175" rx="56.1532" ry="18"/>
<text text-anchor="middle" x="403.806" y="-172" font-family="Helvetica,sans-Serif" font-size="10.00" fill="#ffffff"> Line38: north_y: </text>
</g>
<!--  Line24: case (state) &#45;&gt; Line38: north_y:  -->
<g id="edge4" class="edge">
<title> Line24: case (state) &#45;&gt; Line38: north_y: </title>
<path fill="none" stroke="#b03060" d="M725.1067,-235.7542C716.3747,-233.7179 707.3395,-231.7139 698.806,-230 598.1571,-209.7848 571.1738,-214.5678 470.806,-193 464.9661,-191.7451 458.8743,-190.3008 452.8475,-188.7877"/>
<polygon fill="#b03060" stroke="#b03060" points="445.8214,-186.987 453.3843,-185.6735 449.2118,-187.856 452.6022,-188.7249 452.6022,-188.7249 452.6022,-188.7249 449.2118,-187.856 451.8202,-191.7763 445.8214,-186.987 445.8214,-186.987"/>
</g>
<!--  Line51: south:  -->
<g id="node6" class="node">
<title> Line51: south: </title>
<ellipse fill="#6495ed" stroke="#6495ed" cx="530.806" cy="-175" rx="50.9648" ry="18"/>
<text text-anchor="middle" x="530.806" y="-172" font-family="Helvetica,sans-Serif" font-size="10.00" fill="#ffffff"> Line51: south: </text>
</g>
<!--  Line24: case (state) &#45;&gt; Line51: south:  -->
<g id="edge5" class="edge">
<title> Line24: case (state) &#45;&gt; Line51: south: </title>
<path fill="none" stroke="#b03060" d="M729.2361,-234.6107C685.9268,-221.6001 620.4636,-201.9342 576.7072,-188.7892"/>
<polygon fill="#b03060" stroke="#b03060" points="569.8777,-186.7376 577.488,-185.7348 573.2297,-187.7446 576.5817,-188.7516 576.5817,-188.7516 576.5817,-188.7516 573.2297,-187.7446 575.6754,-191.7684 569.8777,-186.7376 569.8777,-186.7376"/>
</g>
<!--  Line64: south_y:  -->
<g id="node7" class="node">
<title> Line64: south_y: </title>
<ellipse fill="#6495ed" stroke="#6495ed" cx="657.806" cy="-175" rx="57.1629" ry="18"/>
<text text-anchor="middle" x="657.806" y="-172" font-family="Helvetica,sans-Serif" font-size="10.00" fill="#ffffff"> Line64: south_y: </text>
</g>
<!--  Line24: case (state) &#45;&gt; Line64: south_y:  -->
<g id="edge6" class="edge">
<title> Line24: case (state) &#45;&gt; Line64: south_y: </title>
<path fill="none" stroke="#b03060" d="M747.4838,-231.4352C730.3077,-220.626 707.7849,-206.4522 689.6081,-195.0134"/>
<polygon fill="#b03060" stroke="#b03060" points="683.6245,-191.2478 691.2267,-192.3102 686.5867,-193.112 689.549,-194.9762 689.549,-194.9762 689.549,-194.9762 686.5867,-193.112 687.8712,-197.6422 683.6245,-191.2478 683.6245,-191.2478"/>
</g>
<!--  Line77: east:  -->
<g id="node8" class="node">
<title> Line77: east: </title>
<ellipse fill="#6495ed" stroke="#6495ed" cx="810.806" cy="-175" rx="47.2783" ry="18"/>
<text text-anchor="middle" x="810.806" y="-172" font-family="Helvetica,sans-Serif" font-size="10.00" fill="#ffffff"> Line77: east: </text>
</g>
<!--  Line24: case (state) &#45;&gt; Line77: east:  -->
<g id="edge7" class="edge">
<title> Line24: case (state) &#45;&gt; Line77: east: </title>
<path fill="none" stroke="#b03060" d="M782.9521,-229.9551C787.6567,-220.6729 793.4566,-209.2299 798.5438,-199.1931"/>
<polygon fill="#b03060" stroke="#b03060" points="801.7652,-192.8374 801.4102,-200.5053 800.1828,-195.9593 798.6004,-199.0812 798.6004,-199.0812 798.6004,-199.0812 800.1828,-195.9593 795.7907,-197.6571 801.7652,-192.8374 801.7652,-192.8374"/>
</g>
<!--  Line90: east_y:  -->
<g id="node9" class="node">
<title> Line90: east_y: </title>
<ellipse fill="#6495ed" stroke="#6495ed" cx="977.806" cy="-175" rx="53.9782" ry="18"/>
<text text-anchor="middle" x="977.806" y="-172" font-family="Helvetica,sans-Serif" font-size="10.00" fill="#ffffff"> Line90: east_y: </text>
</g>
<!--  Line24: case (state) &#45;&gt; Line90: east_y:  -->
<g id="edge8" class="edge">
<title> Line24: case (state) &#45;&gt; Line90: east_y: </title>
<path fill="none" stroke="#b03060" d="M814.1099,-233.5775C848.7272,-221.19 898.5312,-203.368 934.0994,-190.6401"/>
<polygon fill="#b03060" stroke="#b03060" points="941.0145,-188.1656 935.4851,-193.4899 937.7191,-189.3448 934.4238,-190.5241 934.4238,-190.5241 934.4238,-190.5241 937.7191,-189.3448 933.3624,-187.5583 941.0145,-188.1656 941.0145,-188.1656"/>
</g>
<!--  Line103: west:  -->
<g id="node10" class="node">
<title> Line103: west: </title>
<ellipse fill="#6495ed" stroke="#6495ed" cx="1156.806" cy="-175" rx="51.9612" ry="18"/>
<text text-anchor="middle" x="1156.806" y="-172" font-family="Helvetica,sans-Serif" font-size="10.00" fill="#ffffff"> Line103: west: </text>
</g>
<!--  Line24: case (state) &#45;&gt; Line103: west:  -->
<g id="edge9" class="edge">
<title> Line24: case (state) &#45;&gt; Line103: west: </title>
<path fill="none" stroke="#b03060" d="M827.8682,-237.6957C901.2302,-223.7129 1031.4686,-198.8894 1104.1142,-185.0431"/>
<polygon fill="#b03060" stroke="#b03060" points="1111.3905,-183.6562 1105.1041,-188.0612 1107.9524,-184.3116 1104.5143,-184.9669 1104.5143,-184.9669 1104.5143,-184.9669 1107.9524,-184.3116 1103.9245,-181.8726 1111.3905,-183.6562 1111.3905,-183.6562"/>
</g>
<!--  Line116: west_y:  -->
<g id="node11" class="node">
<title> Line116: west_y: </title>
<ellipse fill="#6495ed" stroke="#6495ed" cx="1343.806" cy="-175" rx="58.1593" ry="18"/>
<text text-anchor="middle" x="1343.806" y="-172" font-family="Helvetica,sans-Serif" font-size="10.00" fill="#ffffff"> Line116: west_y: </text>
</g>
<!--  Line24: case (state) &#45;&gt; Line116: west_y:  -->
<g id="edge10" class="edge">
<title> Line24: case (state) &#45;&gt; Line116: west_y: </title>
<path fill="none" stroke="#b03060" d="M834.5374,-240.8406C920.0915,-230.6721 1080.9546,-211.2496 1217.806,-193 1239.4525,-190.1134 1263.164,-186.7729 1284.12,-183.7592"/>
<polygon fill="#b03060" stroke="#b03060" points="1291.1143,-182.7508 1284.6354,-186.8676 1287.6501,-183.2503 1284.1859,-183.7498 1284.1859,-183.7498 1284.1859,-183.7498 1287.6501,-183.2503 1283.7364,-180.632 1291.1143,-182.7508 1291.1143,-182.7508"/>
</g>
<!--  Line27: if (count==3&#39;b111)  -->
<g id="node12" class="node">
<title> Line27: if (count==3&#39;b111) </title>
<ellipse fill="#6495ed" stroke="#6495ed" cx="82.806" cy="-102" rx="82.6125" ry="18"/>
<text text-anchor="middle" x="82.806" y="-99" font-family="Helvetica,sans-Serif" font-size="10.00" fill="#ffffff"> Line27: if (count==3&#39;b111) </text>
</g>
<!--  Line25: north: &#45;&gt; Line27: if (count==3&#39;b111)  -->
<g id="edge11" class="edge">
<title> Line25: north: &#45;&gt; Line27: if (count==3&#39;b111) </title>
<path fill="none" stroke="#b03060" d="M241.3015,-161.9491C210.6036,-150.338 165.3907,-133.2367 131.1027,-120.2677"/>
<polygon fill="#b03060" stroke="#b03060" points="124.3983,-117.7318 132.0601,-117.262 127.672,-118.9701 130.9456,-120.2083 130.9456,-120.2083 130.9456,-120.2083 127.672,-118.9701 129.8312,-123.1546 124.3983,-117.7318 124.3983,-117.7318"/>
</g>
<!--  Line40: if (count==3&#39;b011)  -->
<g id="node15" class="node">
<title> Line40: if (count==3&#39;b011) </title>
<ellipse fill="#6495ed" stroke="#6495ed" cx="266.806" cy="-102" rx="82.6125" ry="18"/>
<text text-anchor="middle" x="266.806" y="-99" font-family="Helvetica,sans-Serif" font-size="10.00" fill="#ffffff"> Line40: if (count==3&#39;b011) </text>
</g>
<!--  Line38: north_y: &#45;&gt; Line40: if (count==3&#39;b011)  -->
<g id="edge14" class="edge">
<title> Line38: north_y: &#45;&gt; Line40: if (count==3&#39;b011) </title>
<path fill="none" stroke="#b03060" d="M374.7518,-159.5186C354.3062,-148.6242 326.7483,-133.9401 304.5948,-122.1356"/>
<polygon fill="#b03060" stroke="#b03060" points="298.2044,-118.7305 305.8634,-119.2424 301.2932,-120.3764 304.3821,-122.0223 304.3821,-122.0223 304.3821,-122.0223 301.2932,-120.3764 302.9008,-124.8023 298.2044,-118.7305 298.2044,-118.7305"/>
</g>
<!--  Line53: if (count==3&#39;b111)  -->
<g id="node18" class="node">
<title> Line53: if (count==3&#39;b111) </title>
<ellipse fill="#6495ed" stroke="#6495ed" cx="450.806" cy="-102" rx="82.6125" ry="18"/>
<text text-anchor="middle" x="450.806" y="-99" font-family="Helvetica,sans-Serif" font-size="10.00" fill="#ffffff"> Line53: if (count==3&#39;b111) </text>
</g>
<!--  Line51: south: &#45;&gt; Line53: if (count==3&#39;b111)  -->
<g id="edge17" class="edge">
<title> Line51: south: &#45;&gt; Line53: if (count==3&#39;b111) </title>
<path fill="none" stroke="#b03060" d="M512.2513,-158.0688C501.2838,-148.061 487.2624,-135.2664 475.3836,-124.4271"/>
<polygon fill="#b03060" stroke="#b03060" points="470.0953,-119.6015 477.3894,-121.993 472.6807,-121.9607 475.2661,-124.3198 475.2661,-124.3198 475.2661,-124.3198 472.6807,-121.9607 473.1428,-126.6467 470.0953,-119.6015 470.0953,-119.6015"/>
</g>
<!--  Line66: if (count==3&#39;b011)  -->
<g id="node21" class="node">
<title> Line66: if (count==3&#39;b011) </title>
<ellipse fill="#6495ed" stroke="#6495ed" cx="634.806" cy="-102" rx="82.6125" ry="18"/>
<text text-anchor="middle" x="634.806" y="-99" font-family="Helvetica,sans-Serif" font-size="10.00" fill="#ffffff"> Line66: if (count==3&#39;b011) </text>
</g>
<!--  Line64: south_y: &#45;&gt; Line66: if (count==3&#39;b011)  -->
<g id="edge20" class="edge">
<title> Line64: south_y: &#45;&gt; Line66: if (count==3&#39;b011) </title>
<path fill="none" stroke="#b03060" d="M652.1206,-156.9551C649.2732,-147.9177 645.7805,-136.8319 642.6796,-126.9899"/>
<polygon fill="#b03060" stroke="#b03060" points="640.5057,-120.0904 645.6137,-125.8202 641.5575,-123.4286 642.6093,-126.7668 642.6093,-126.7668 642.6093,-126.7668 641.5575,-123.4286 639.6049,-127.7134 640.5057,-120.0904 640.5057,-120.0904"/>
</g>
<!--  Line79: if (count==3&#39;b111)  -->
<g id="node24" class="node">
<title> Line79: if (count==3&#39;b111) </title>
<ellipse fill="#6495ed" stroke="#6495ed" cx="818.806" cy="-102" rx="82.6125" ry="18"/>
<text text-anchor="middle" x="818.806" y="-99" font-family="Helvetica,sans-Serif" font-size="10.00" fill="#ffffff"> Line79: if (count==3&#39;b111) </text>
</g>
<!--  Line77: east: &#45;&gt; Line79: if (count==3&#39;b111)  -->
<g id="edge23" class="edge">
<title> Line77: east: &#45;&gt; Line79: if (count==3&#39;b111) </title>
<path fill="none" stroke="#b03060" d="M812.7835,-156.9551C813.7643,-148.0054 814.9653,-137.047 816.0359,-127.2769"/>
<polygon fill="#b03060" stroke="#b03060" points="816.8235,-120.0904 819.1921,-127.3919 816.4422,-123.5695 816.0609,-127.0487 816.0609,-127.0487 816.0609,-127.0487 816.4422,-123.5695 812.9296,-126.7055 816.8235,-120.0904 816.8235,-120.0904"/>
</g>
<!--  Line92: if (count==3&#39;b011)  -->
<g id="node27" class="node">
<title> Line92: if (count==3&#39;b011) </title>
<ellipse fill="#6495ed" stroke="#6495ed" cx="1002.806" cy="-102" rx="82.6125" ry="18"/>
<text text-anchor="middle" x="1002.806" y="-99" font-family="Helvetica,sans-Serif" font-size="10.00" fill="#ffffff"> Line92: if (count==3&#39;b011) </text>
</g>
<!--  Line90: east_y: &#45;&gt; Line92: if (count==3&#39;b011)  -->
<g id="edge26" class="edge">
<title> Line90: east_y: &#45;&gt; Line92: if (count==3&#39;b011) </title>
<path fill="none" stroke="#b03060" d="M983.9858,-156.9551C987.0808,-147.9177 990.8773,-136.8319 994.2478,-126.9899"/>
<polygon fill="#b03060" stroke="#b03060" points="996.6107,-120.0904 997.3228,-127.7334 995.4767,-123.4016 994.3427,-126.7128 994.3427,-126.7128 994.3427,-126.7128 995.4767,-123.4016 991.3626,-125.6922 996.6107,-120.0904 996.6107,-120.0904"/>
</g>
<!--  Line105: if (count==3&#39;b111)  -->
<g id="node30" class="node">
<title> Line105: if (count==3&#39;b111) </title>
<ellipse fill="#6495ed" stroke="#6495ed" cx="1189.806" cy="-102" rx="86.298" ry="18"/>
<text text-anchor="middle" x="1189.806" y="-99" font-family="Helvetica,sans-Serif" font-size="10.00" fill="#ffffff"> Line105: if (count==3&#39;b111) </text>
</g>
<!--  Line103: west: &#45;&gt; Line105: if (count==3&#39;b111)  -->
<g id="edge29" class="edge">
<title> Line103: west: &#45;&gt; Line105: if (count==3&#39;b111) </title>
<path fill="none" stroke="#b03060" d="M1164.9633,-156.9551C1169.0884,-147.8299 1174.1575,-136.6165 1178.6386,-126.7036"/>
<polygon fill="#b03060" stroke="#b03060" points="1181.6282,-120.0904 1181.615,-127.7665 1180.1864,-123.2796 1178.7447,-126.4689 1178.7447,-126.4689 1178.7447,-126.4689 1180.1864,-123.2796 1175.8743,-125.1713 1181.6282,-120.0904 1181.6282,-120.0904"/>
</g>
<!--  Line118: if (count==3&#39;b011)  -->
<g id="node33" class="node">
<title> Line118: if (count==3&#39;b011) </title>
<ellipse fill="#6495ed" stroke="#6495ed" cx="1379.806" cy="-102" rx="86.298" ry="18"/>
<text text-anchor="middle" x="1379.806" y="-99" font-family="Helvetica,sans-Serif" font-size="10.00" fill="#ffffff"> Line118: if (count==3&#39;b011) </text>
</g>
<!--  Line116: west_y: &#45;&gt; Line118: if (count==3&#39;b011)  -->
<g id="edge32" class="edge">
<title> Line116: west_y: &#45;&gt; Line118: if (count==3&#39;b011) </title>
<path fill="none" stroke="#b03060" d="M1352.7049,-156.9551C1357.2482,-147.7422 1362.8413,-136.4006 1367.7642,-126.418"/>
<polygon fill="#b03060" stroke="#b03060" points="1370.8847,-120.0904 1370.6138,-127.7617 1369.3367,-123.2294 1367.7886,-126.3685 1367.7886,-126.3685 1367.7886,-126.3685 1369.3367,-123.2294 1364.9635,-124.9752 1370.8847,-120.0904 1370.8847,-120.0904"/>
</g>
<!--  Line29  -->
<g id="node13" class="node">
<title> Line29 </title>
<ellipse fill="#6495ed" stroke="#6495ed" cx="32.806" cy="-18" rx="31.0244" ry="18"/>
<text text-anchor="middle" x="32.806" y="-15" font-family="Helvetica,sans-Serif" font-size="10.00" fill="#ffffff"> Line29 </text>
</g>
<!--  Line27: if (count==3&#39;b111) &#45;&gt; Line29  -->
<g id="edge12" class="edge">
<title> Line27: if (count==3&#39;b111) &#45;&gt; Line29 </title>
<path fill="none" stroke="#b03060" d="M71.9568,-83.7733C64.552,-71.3333 54.6777,-54.7444 46.6983,-41.339"/>
<polygon fill="#b03060" stroke="#b03060" points="42.9525,-35.0461 49.2397,-39.45 44.7427,-38.0536 46.5329,-41.0612 46.5329,-41.0612 46.5329,-41.0612 44.7427,-38.0536 43.8262,-42.6723 42.9525,-35.0461 42.9525,-35.0461"/>
<text text-anchor="middle" x="68.5795" y="-57" font-family="Times,serif" font-size="10.00" fill="#000080">true</text>
</g>
<!--  Line34  -->
<g id="node14" class="node">
<title> Line34 </title>
<ellipse fill="#6495ed" stroke="#6495ed" cx="112.806" cy="-18" rx="31.0244" ry="18"/>
<text text-anchor="middle" x="112.806" y="-15" font-family="Helvetica,sans-Serif" font-size="10.00" fill="#ffffff"> Line34 </text>
</g>
<!--  Line27: if (count==3&#39;b111) &#45;&gt; Line34  -->
<g id="edge13" class="edge">
<title> Line27: if (count==3&#39;b111) &#45;&gt; Line34 </title>
<path fill="none" stroke="#b03060" d="M89.3156,-83.7733C93.63,-71.6929 99.3417,-55.7 104.0526,-42.5094"/>
<polygon fill="#b03060" stroke="#b03060" points="106.4122,-35.9026 107.0243,-43.5543 105.235,-39.1987 104.0578,-42.4948 104.0578,-42.4948 104.0578,-42.4948 105.235,-39.1987 101.0913,-41.4353 106.4122,-35.9026 106.4122,-35.9026"/>
<text text-anchor="middle" x="109.2435" y="-57" font-family="Times,serif" font-size="10.00" fill="#000080">false</text>
</g>
<!--  Line42  -->
<g id="node16" class="node">
<title> Line42 </title>
<ellipse fill="#6495ed" stroke="#6495ed" cx="210.806" cy="-18" rx="31.0244" ry="18"/>
<text text-anchor="middle" x="210.806" y="-15" font-family="Helvetica,sans-Serif" font-size="10.00" fill="#ffffff"> Line42 </text>
</g>
<!--  Line40: if (count==3&#39;b011) &#45;&gt; Line42  -->
<g id="edge15" class="edge">
<title> Line40: if (count==3&#39;b011) &#45;&gt; Line42 </title>
<path fill="none" stroke="#b03060" d="M254.9299,-84.1858C246.5216,-71.5734 235.1706,-54.5469 226.0873,-40.9219"/>
<polygon fill="#b03060" stroke="#b03060" points="222.0921,-34.9292 228.596,-39.0062 224.0336,-37.8413 225.9751,-40.7535 225.9751,-40.7535 225.9751,-40.7535 224.0336,-37.8413 223.3541,-42.5009 222.0921,-34.9292 222.0921,-34.9292"/>
<text text-anchor="middle" x="250.5795" y="-57" font-family="Times,serif" font-size="10.00" fill="#000080">true</text>
</g>
<!--  Line47  -->
<g id="node17" class="node">
<title> Line47 </title>
<ellipse fill="#6495ed" stroke="#6495ed" cx="290.806" cy="-18" rx="31.0244" ry="18"/>
<text text-anchor="middle" x="290.806" y="-15" font-family="Helvetica,sans-Serif" font-size="10.00" fill="#ffffff"> Line47 </text>
</g>
<!--  Line40: if (count==3&#39;b011) &#45;&gt; Line47  -->
<g id="edge16" class="edge">
<title> Line40: if (count==3&#39;b011) &#45;&gt; Line47 </title>
<path fill="none" stroke="#b03060" d="M272.0137,-83.7733C275.4335,-71.8037 279.9508,-55.9931 283.6994,-42.8732"/>
<polygon fill="#b03060" stroke="#b03060" points="285.691,-35.9026 286.7967,-43.4987 284.7294,-39.2679 283.7679,-42.6333 283.7679,-42.6333 283.7679,-42.6333 284.7294,-39.2679 280.7391,-41.7679 285.691,-35.9026 285.691,-35.9026"/>
<text text-anchor="middle" x="290.2435" y="-57" font-family="Times,serif" font-size="10.00" fill="#000080">false</text>
</g>
<!--  Line55  -->
<g id="node19" class="node">
<title> Line55 </title>
<ellipse fill="#6495ed" stroke="#6495ed" cx="382.806" cy="-18" rx="31.0244" ry="18"/>
<text text-anchor="middle" x="382.806" y="-15" font-family="Helvetica,sans-Serif" font-size="10.00" fill="#ffffff"> Line55 </text>
</g>
<!--  Line53: if (count==3&#39;b111) &#45;&gt; Line55  -->
<g id="edge18" class="edge">
<title> Line53: if (count==3&#39;b111) &#45;&gt; Line55 </title>
<path fill="none" stroke="#b03060" d="M436.385,-84.1858C425.9465,-71.2912 411.773,-53.7828 400.6257,-40.0126"/>
<polygon fill="#b03060" stroke="#b03060" points="396.0533,-34.3642 402.906,-37.823 398.2555,-37.0846 400.4577,-39.805 400.4577,-39.805 400.4577,-39.805 398.2555,-37.0846 398.0094,-41.787 396.0533,-34.3642 396.0533,-34.3642"/>
<text text-anchor="middle" x="429.5795" y="-57" font-family="Times,serif" font-size="10.00" fill="#000080">true</text>
</g>
<!--  Line60  -->
<g id="node20" class="node">
<title> Line60 </title>
<ellipse fill="#6495ed" stroke="#6495ed" cx="462.806" cy="-18" rx="31.0244" ry="18"/>
<text text-anchor="middle" x="462.806" y="-15" font-family="Helvetica,sans-Serif" font-size="10.00" fill="#ffffff"> Line60 </text>
</g>
<!--  Line53: if (count==3&#39;b111) &#45;&gt; Line60  -->
<g id="edge19" class="edge">
<title> Line53: if (count==3&#39;b111) &#45;&gt; Line60 </title>
<path fill="none" stroke="#b03060" d="M453.4098,-83.7733C455.1081,-71.8851 457.3477,-56.2081 459.2144,-43.1413"/>
<polygon fill="#b03060" stroke="#b03060" points="460.2073,-36.1912 462.3356,-43.5663 459.7123,-39.656 459.2172,-43.1208 459.2172,-43.1208 459.2172,-43.1208 459.7123,-39.656 456.0989,-42.6753 460.2073,-36.1912 460.2073,-36.1912"/>
<text text-anchor="middle" x="467.2435" y="-57" font-family="Times,serif" font-size="10.00" fill="#000080">false</text>
</g>
<!--  Line68  -->
<g id="node22" class="node">
<title> Line68 </title>
<ellipse fill="#6495ed" stroke="#6495ed" cx="566.806" cy="-18" rx="31.0244" ry="18"/>
<text text-anchor="middle" x="566.806" y="-15" font-family="Helvetica,sans-Serif" font-size="10.00" fill="#ffffff"> Line68 </text>
</g>
<!--  Line66: if (count==3&#39;b011) &#45;&gt; Line68  -->
<g id="edge21" class="edge">
<title> Line66: if (count==3&#39;b011) &#45;&gt; Line68 </title>
<path fill="none" stroke="#b03060" d="M620.385,-84.1858C609.9465,-71.2912 595.773,-53.7828 584.6257,-40.0126"/>
<polygon fill="#b03060" stroke="#b03060" points="580.0533,-34.3642 586.906,-37.823 582.2555,-37.0846 584.4577,-39.805 584.4577,-39.805 584.4577,-39.805 582.2555,-37.0846 582.0094,-41.787 580.0533,-34.3642 580.0533,-34.3642"/>
<text text-anchor="middle" x="613.5795" y="-57" font-family="Times,serif" font-size="10.00" fill="#000080">true</text>
</g>
<!--  Line73  -->
<g id="node23" class="node">
<title> Line73 </title>
<ellipse fill="#6495ed" stroke="#6495ed" cx="646.806" cy="-18" rx="31.0244" ry="18"/>
<text text-anchor="middle" x="646.806" y="-15" font-family="Helvetica,sans-Serif" font-size="10.00" fill="#ffffff"> Line73 </text>
</g>
<!--  Line66: if (count==3&#39;b011) &#45;&gt; Line73  -->
<g id="edge22" class="edge">
<title> Line66: if (count==3&#39;b011) &#45;&gt; Line73 </title>
<path fill="none" stroke="#b03060" d="M637.4098,-83.7733C639.1081,-71.8851 641.3477,-56.2081 643.2144,-43.1413"/>
<polygon fill="#b03060" stroke="#b03060" points="644.2073,-36.1912 646.3356,-43.5663 643.7123,-39.656 643.2172,-43.1208 643.2172,-43.1208 643.2172,-43.1208 643.7123,-39.656 640.0989,-42.6753 644.2073,-36.1912 644.2073,-36.1912"/>
<text text-anchor="middle" x="651.2435" y="-57" font-family="Times,serif" font-size="10.00" fill="#000080">false</text>
</g>
<!--  Line81  -->
<g id="node25" class="node">
<title> Line81 </title>
<ellipse fill="#6495ed" stroke="#6495ed" cx="750.806" cy="-18" rx="31.0244" ry="18"/>
<text text-anchor="middle" x="750.806" y="-15" font-family="Helvetica,sans-Serif" font-size="10.00" fill="#ffffff"> Line81 </text>
</g>
<!--  Line79: if (count==3&#39;b111) &#45;&gt; Line81  -->
<g id="edge24" class="edge">
<title> Line79: if (count==3&#39;b111) &#45;&gt; Line81 </title>
<path fill="none" stroke="#b03060" d="M804.385,-84.1858C793.9465,-71.2912 779.773,-53.7828 768.6257,-40.0126"/>
<polygon fill="#b03060" stroke="#b03060" points="764.0533,-34.3642 770.906,-37.823 766.2555,-37.0846 768.4577,-39.805 768.4577,-39.805 768.4577,-39.805 766.2555,-37.0846 766.0094,-41.787 764.0533,-34.3642 764.0533,-34.3642"/>
<text text-anchor="middle" x="797.5795" y="-57" font-family="Times,serif" font-size="10.00" fill="#000080">true</text>
</g>
<!--  Line86  -->
<g id="node26" class="node">
<title> Line86 </title>
<ellipse fill="#6495ed" stroke="#6495ed" cx="830.806" cy="-18" rx="31.0244" ry="18"/>
<text text-anchor="middle" x="830.806" y="-15" font-family="Helvetica,sans-Serif" font-size="10.00" fill="#ffffff"> Line86 </text>
</g>
<!--  Line79: if (count==3&#39;b111) &#45;&gt; Line86  -->
<g id="edge25" class="edge">
<title> Line79: if (count==3&#39;b111) &#45;&gt; Line86 </title>
<path fill="none" stroke="#b03060" d="M821.4098,-83.7733C823.1081,-71.8851 825.3477,-56.2081 827.2144,-43.1413"/>
<polygon fill="#b03060" stroke="#b03060" points="828.2073,-36.1912 830.3356,-43.5663 827.7123,-39.656 827.2172,-43.1208 827.2172,-43.1208 827.2172,-43.1208 827.7123,-39.656 824.0989,-42.6753 828.2073,-36.1912 828.2073,-36.1912"/>
<text text-anchor="middle" x="835.2435" y="-57" font-family="Times,serif" font-size="10.00" fill="#000080">false</text>
</g>
<!--  Line94  -->
<g id="node28" class="node">
<title> Line94 </title>
<ellipse fill="#6495ed" stroke="#6495ed" cx="930.806" cy="-18" rx="31.0244" ry="18"/>
<text text-anchor="middle" x="930.806" y="-15" font-family="Helvetica,sans-Serif" font-size="10.00" fill="#ffffff"> Line94 </text>
</g>
<!--  Line92: if (count==3&#39;b011) &#45;&gt; Line94  -->
<g id="edge27" class="edge">
<title> Line92: if (count==3&#39;b011) &#45;&gt; Line94 </title>
<path fill="none" stroke="#b03060" d="M987.5367,-84.1858C976.4842,-71.2912 961.477,-53.7828 949.6739,-40.0126"/>
<polygon fill="#b03060" stroke="#b03060" points="944.8325,-34.3642 951.7798,-37.6291 947.1103,-37.0217 949.3881,-39.6791 949.3881,-39.6791 949.3881,-39.6791 947.1103,-37.0217 946.9964,-41.7291 944.8325,-34.3642 944.8325,-34.3642"/>
<text text-anchor="middle" x="979.5795" y="-57" font-family="Times,serif" font-size="10.00" fill="#000080">true</text>
</g>
<!--  Line99  -->
<g id="node29" class="node">
<title> Line99 </title>
<ellipse fill="#6495ed" stroke="#6495ed" cx="1010.806" cy="-18" rx="31.0244" ry="18"/>
<text text-anchor="middle" x="1010.806" y="-15" font-family="Helvetica,sans-Serif" font-size="10.00" fill="#ffffff"> Line99 </text>
</g>
<!--  Line92: if (count==3&#39;b011) &#45;&gt; Line99  -->
<g id="edge28" class="edge">
<title> Line92: if (count==3&#39;b011) &#45;&gt; Line99 </title>
<path fill="none" stroke="#b03060" d="M1004.5419,-83.7733C1005.6636,-71.9952 1007.1395,-56.4981 1008.377,-43.5049"/>
<polygon fill="#b03060" stroke="#b03060" points="1009.0735,-36.1912 1011.5456,-43.4583 1008.7417,-39.6754 1008.4098,-43.1596 1008.4098,-43.1596 1008.4098,-43.1596 1008.7417,-39.6754 1005.274,-42.861 1009.0735,-36.1912 1009.0735,-36.1912"/>
<text text-anchor="middle" x="1017.2435" y="-57" font-family="Times,serif" font-size="10.00" fill="#000080">false</text>
</g>
<!--  Line107  -->
<g id="node31" class="node">
<title> Line107 </title>
<ellipse fill="#6495ed" stroke="#6495ed" cx="1110.806" cy="-18" rx="34.2107" ry="18"/>
<text text-anchor="middle" x="1110.806" y="-15" font-family="Helvetica,sans-Serif" font-size="10.00" fill="#ffffff"> Line107 </text>
</g>
<!--  Line105: if (count==3&#39;b111) &#45;&gt; Line107  -->
<g id="edge30" class="edge">
<title> Line105: if (count==3&#39;b111) &#45;&gt; Line107 </title>
<path fill="none" stroke="#b03060" d="M1173.0522,-84.1858C1160.8168,-71.176 1144.1645,-53.4698 1131.1623,-39.6446"/>
<polygon fill="#b03060" stroke="#b03060" points="1126.1962,-34.3642 1133.2865,-37.3054 1128.594,-36.9138 1130.9919,-39.4634 1130.9919,-39.4634 1130.9919,-39.4634 1128.594,-36.9138 1128.6972,-41.6215 1126.1962,-34.3642 1126.1962,-34.3642"/>
<text text-anchor="middle" x="1163.5795" y="-57" font-family="Times,serif" font-size="10.00" fill="#000080">true</text>
</g>
<!--  Line112  -->
<g id="node32" class="node">
<title> Line112 </title>
<ellipse fill="#6495ed" stroke="#6495ed" cx="1197.806" cy="-18" rx="34.2107" ry="18"/>
<text text-anchor="middle" x="1197.806" y="-15" font-family="Helvetica,sans-Serif" font-size="10.00" fill="#ffffff"> Line112 </text>
</g>
<!--  Line105: if (count==3&#39;b111) &#45;&gt; Line112  -->
<g id="edge31" class="edge">
<title> Line105: if (count==3&#39;b111) &#45;&gt; Line112 </title>
<path fill="none" stroke="#b03060" d="M1191.5419,-83.7733C1192.6636,-71.9952 1194.1395,-56.4981 1195.377,-43.5049"/>
<polygon fill="#b03060" stroke="#b03060" points="1196.0735,-36.1912 1198.5456,-43.4583 1195.7417,-39.6754 1195.4098,-43.1596 1195.4098,-43.1596 1195.4098,-43.1596 1195.7417,-39.6754 1192.274,-42.861 1196.0735,-36.1912 1196.0735,-36.1912"/>
<text text-anchor="middle" x="1204.2435" y="-57" font-family="Times,serif" font-size="10.00" fill="#000080">false</text>
</g>
<!--  Line120  -->
<g id="node34" class="node">
<title> Line120 </title>
<ellipse fill="#6495ed" stroke="#6495ed" cx="1335.806" cy="-18" rx="34.2107" ry="18"/>
<text text-anchor="middle" x="1335.806" y="-15" font-family="Helvetica,sans-Serif" font-size="10.00" fill="#ffffff"> Line120 </text>
</g>
<!--  Line118: if (count==3&#39;b011) &#45;&gt; Line120  -->
<g id="edge33" class="edge">
<title> Line118: if (count==3&#39;b011) &#45;&gt; Line120 </title>
<path fill="none" stroke="#b03060" d="M1370.2587,-83.7733C1363.8294,-71.4991 1355.2844,-55.186 1348.313,-41.8769"/>
<polygon fill="#b03060" stroke="#b03060" points="1345.0332,-35.6155 1351.0717,-40.3547 1346.6573,-38.716 1348.2813,-41.8164 1348.2813,-41.8164 1348.2813,-41.8164 1346.6573,-38.716 1345.4909,-43.278 1345.0332,-35.6155 1345.0332,-35.6155"/>
<text text-anchor="middle" x="1368.5795" y="-57" font-family="Times,serif" font-size="10.00" fill="#000080">true</text>
</g>
<!--  Line125  -->
<g id="node35" class="node">
<title> Line125 </title>
<ellipse fill="#6495ed" stroke="#6495ed" cx="1422.806" cy="-18" rx="34.2107" ry="18"/>
<text text-anchor="middle" x="1422.806" y="-15" font-family="Helvetica,sans-Serif" font-size="10.00" fill="#ffffff"> Line125 </text>
</g>
<!--  Line118: if (count==3&#39;b011) &#45;&gt; Line125  -->
<g id="edge34" class="edge">
<title> Line118: if (count==3&#39;b011) &#45;&gt; Line125 </title>
<path fill="none" stroke="#b03060" d="M1389.1364,-83.7733C1395.4196,-71.4991 1403.7703,-55.186 1410.5833,-41.8769"/>
<polygon fill="#b03060" stroke="#b03060" points="1413.7885,-35.6155 1413.4028,-43.282 1412.1937,-38.7311 1410.5988,-41.8466 1410.5988,-41.8466 1410.5988,-41.8466 1412.1937,-38.7311 1407.7948,-40.4112 1413.7885,-35.6155 1413.7885,-35.6155"/>
<text text-anchor="middle" x="1414.2435" y="-57" font-family="Times,serif" font-size="10.00" fill="#000080">false</text>
</g>
<!--  Line134: case (state)  -->
<g id="node36" class="node">
<title> Line134: case (state) </title>
<ellipse fill="#6495ed" stroke="#6495ed" cx="1910.806" cy="-332" rx="69.2116" ry="18"/>
<text text-anchor="middle" x="1910.806" y="-329" font-family="Helvetica,sans-Serif" font-size="10.00" fill="#ffffff"> Line134: case (state) </text>
</g>
<!--  Line135: north:  -->
<g id="node37" class="node">
<title> Line135: north: </title>
<ellipse fill="#6495ed" stroke="#6495ed" cx="1453.806" cy="-248" rx="53.1398" ry="18"/>
<text text-anchor="middle" x="1453.806" y="-245" font-family="Helvetica,sans-Serif" font-size="10.00" fill="#ffffff"> Line135: north: </text>
</g>
<!--  Line134: case (state) &#45;&gt; Line135: north:  -->
<g id="edge35" class="edge">
<title> Line134: case (state) &#45;&gt; Line135: north: </title>
<path fill="none" stroke="#b03060" d="M1848.7916,-323.9277C1770.6324,-313.2304 1632.4034,-292.5706 1515.806,-266 1510.7722,-264.8529 1505.5426,-263.5358 1500.3507,-262.1471"/>
<polygon fill="#b03060" stroke="#b03060" points="1493.316,-260.2182 1500.8998,-259.0315 1496.6914,-261.1438 1500.0668,-262.0693 1500.0668,-262.0693 1500.0668,-262.0693 1496.6914,-261.1438 1499.2338,-265.1072 1493.316,-260.2182 1493.316,-260.2182"/>
</g>
<!--  Line142: north_y:  -->
<g id="node38" class="node">
<title> Line142: north_y: </title>
<ellipse fill="#6495ed" stroke="#6495ed" cx="1583.806" cy="-248" rx="59.3389" ry="18"/>
<text text-anchor="middle" x="1583.806" y="-245" font-family="Helvetica,sans-Serif" font-size="10.00" fill="#ffffff"> Line142: north_y: </text>
</g>
<!--  Line134: case (state) &#45;&gt; Line142: north_y:  -->
<g id="edge36" class="edge">
<title> Line134: case (state) &#45;&gt; Line142: north_y: </title>
<path fill="none" stroke="#b03060" d="M1861.1189,-319.4836C1808.954,-306.309 1724.5631,-284.8994 1651.806,-266 1646.5702,-264.6399 1641.1103,-263.2116 1635.6607,-261.7794"/>
<polygon fill="#b03060" stroke="#b03060" points="1628.781,-259.9679 1636.3524,-258.7042 1632.1657,-260.8592 1635.5503,-261.7504 1635.5503,-261.7504 1635.5503,-261.7504 1632.1657,-260.8592 1634.7482,-264.7966 1628.781,-259.9679 1628.781,-259.9679"/>
</g>
<!--  Line149: south:  -->
<g id="node39" class="node">
<title> Line149: south: </title>
<ellipse fill="#6495ed" stroke="#6495ed" cx="1714.806" cy="-248" rx="54.1495" ry="18"/>
<text text-anchor="middle" x="1714.806" y="-245" font-family="Helvetica,sans-Serif" font-size="10.00" fill="#ffffff"> Line149: south: </text>
</g>
<!--  Line134: case (state) &#45;&gt; Line149: south:  -->
<g id="edge37" class="edge">
<title> Line134: case (state) &#45;&gt; Line149: south: </title>
<path fill="none" stroke="#b03060" d="M1874.8566,-316.5931C1840.9769,-302.0732 1790.2892,-280.3499 1755.0673,-265.2548"/>
<polygon fill="#b03060" stroke="#b03060" points="1748.2387,-262.3283 1755.9136,-262.1905 1751.4557,-263.707 1754.6727,-265.0858 1754.6727,-265.0858 1754.6727,-265.0858 1751.4557,-263.707 1753.4318,-267.9811 1748.2387,-262.3283 1748.2387,-262.3283"/>
</g>
<!--  Line156: south_y:  -->
<g id="node40" class="node">
<title> Line156: south_y: </title>
<ellipse fill="#6495ed" stroke="#6495ed" cx="1846.806" cy="-248" rx="60.3485" ry="18"/>
<text text-anchor="middle" x="1846.806" y="-245" font-family="Helvetica,sans-Serif" font-size="10.00" fill="#ffffff"> Line156: south_y: </text>
</g>
<!--  Line134: case (state) &#45;&gt; Line156: south_y:  -->
<g id="edge38" class="edge">
<title> Line134: case (state) &#45;&gt; Line156: south_y: </title>
<path fill="none" stroke="#b03060" d="M1897.2333,-314.1858C1887.7299,-301.7126 1874.9372,-284.9222 1864.615,-271.3743"/>
<polygon fill="#b03060" stroke="#b03060" points="1860.3592,-265.7886 1867.1072,-269.4475 1862.4804,-268.5726 1864.6015,-271.3566 1864.6015,-271.3566 1864.6015,-271.3566 1862.4804,-268.5726 1862.0959,-273.2657 1860.3592,-265.7886 1860.3592,-265.7886"/>
</g>
<!--  Line163: west:  -->
<g id="node41" class="node">
<title> Line163: west: </title>
<ellipse fill="#6495ed" stroke="#6495ed" cx="1976.806" cy="-248" rx="51.9612" ry="18"/>
<text text-anchor="middle" x="1976.806" y="-245" font-family="Helvetica,sans-Serif" font-size="10.00" fill="#ffffff"> Line163: west: </text>
</g>
<!--  Line134: case (state) &#45;&gt; Line163: west:  -->
<g id="edge39" class="edge">
<title> Line134: case (state) &#45;&gt; Line163: west: </title>
<path fill="none" stroke="#b03060" d="M1924.8029,-314.1858C1934.6695,-301.6283 1947.9741,-284.6951 1958.6559,-271.1001"/>
<polygon fill="#b03060" stroke="#b03060" points="1963.0556,-265.5005 1961.2077,-272.9509 1960.8932,-268.2526 1958.7308,-271.0048 1958.7308,-271.0048 1958.7308,-271.0048 1960.8932,-268.2526 1956.2539,-269.0586 1963.0556,-265.5005 1963.0556,-265.5005"/>
</g>
<!--  Line170: west_y:  -->
<g id="node42" class="node">
<title> Line170: west_y: </title>
<ellipse fill="#6495ed" stroke="#6495ed" cx="2104.806" cy="-248" rx="58.1593" ry="18"/>
<text text-anchor="middle" x="2104.806" y="-245" font-family="Helvetica,sans-Serif" font-size="10.00" fill="#ffffff"> Line170: west_y: </text>
</g>
<!--  Line134: case (state) &#45;&gt; Line170: west_y:  -->
<g id="edge40" class="edge">
<title> Line134: case (state) &#45;&gt; Line170: west_y: </title>
<path fill="none" stroke="#b03060" d="M1946.8413,-316.3971C1980.1252,-301.9855 2029.5142,-280.6006 2064.1846,-265.5887"/>
<polygon fill="#b03060" stroke="#b03060" points="2070.9133,-262.6752 2065.7412,-268.3473 2067.7014,-264.0659 2064.4896,-265.4567 2064.4896,-265.4567 2064.4896,-265.4567 2067.7014,-264.0659 2063.2379,-262.566 2070.9133,-262.6752 2070.9133,-262.6752"/>
</g>
<!--  Line177: east:  -->
<g id="node43" class="node">
<title> Line177: east: </title>
<ellipse fill="#6495ed" stroke="#6495ed" cx="2231.806" cy="-248" rx="50.9648" ry="18"/>
<text text-anchor="middle" x="2231.806" y="-245" font-family="Helvetica,sans-Serif" font-size="10.00" fill="#ffffff"> Line177: east: </text>
</g>
<!--  Line134: case (state) &#45;&gt; Line177: east:  -->
<g id="edge41" class="edge">
<title> Line134: case (state) &#45;&gt; Line177: east: </title>
<path fill="none" stroke="#b03060" d="M1961.9921,-319.7582C2014.7422,-306.9781 2099.2741,-286.0401 2171.806,-266 2176.4544,-264.7157 2181.2926,-263.3362 2186.1156,-261.9331"/>
<polygon fill="#b03060" stroke="#b03060" points="2193.1468,-259.8688 2187.3177,-264.8632 2189.7885,-260.8548 2186.4303,-261.8408 2186.4303,-261.8408 2186.4303,-261.8408 2189.7885,-260.8548 2185.5429,-258.8183 2193.1468,-259.8688 2193.1468,-259.8688"/>
</g>
<!--  Line184: east_y:  -->
<g id="node44" class="node">
<title> Line184: east_y: </title>
<ellipse fill="#6495ed" stroke="#6495ed" cx="2357.806" cy="-248" rx="57.1629" ry="18"/>
<text text-anchor="middle" x="2357.806" y="-245" font-family="Helvetica,sans-Serif" font-size="10.00" fill="#ffffff"> Line184: east_y: </text>
</g>
<!--  Line134: case (state) &#45;&gt; Line184: east_y:  -->
<g id="edge42" class="edge">
<title> Line134: case (state) &#45;&gt; Line184: east_y: </title>
<path fill="none" stroke="#b03060" d="M1971.5317,-323.2968C2047.0121,-312.0627 2179.5873,-290.9634 2291.806,-266 2297.1861,-264.8032 2302.7844,-263.4488 2308.3451,-262.0333"/>
<polygon fill="#b03060" stroke="#b03060" points="2315.3492,-260.2148 2309.3654,-265.0229 2311.9615,-261.0944 2308.5738,-261.974 2308.5738,-261.974 2308.5738,-261.974 2311.9615,-261.0944 2307.7822,-258.925 2315.3492,-260.2148 2315.3492,-260.2148"/>
</g>
<!--  Line137  -->
<g id="node45" class="node">
<title> Line137 </title>
<ellipse fill="#6495ed" stroke="#6495ed" cx="1453.806" cy="-175" rx="34.2107" ry="18"/>
<text text-anchor="middle" x="1453.806" y="-172" font-family="Helvetica,sans-Serif" font-size="10.00" fill="#ffffff"> Line137 </text>
</g>
<!--  Line135: north: &#45;&gt; Line137  -->
<g id="edge43" class="edge">
<title> Line135: north: &#45;&gt; Line137 </title>
<path fill="none" stroke="#b03060" d="M1453.806,-229.9551C1453.806,-221.0054 1453.806,-210.047 1453.806,-200.2769"/>
<polygon fill="#b03060" stroke="#b03060" points="1453.806,-193.0904 1456.9561,-200.0903 1453.8061,-196.5904 1453.8061,-200.0904 1453.8061,-200.0904 1453.8061,-200.0904 1453.8061,-196.5904 1450.6561,-200.0904 1453.806,-193.0904 1453.806,-193.0904"/>
</g>
<!--  Line144  -->
<g id="node46" class="node">
<title> Line144 </title>
<ellipse fill="#6495ed" stroke="#6495ed" cx="1583.806" cy="-175" rx="34.2107" ry="18"/>
<text text-anchor="middle" x="1583.806" y="-172" font-family="Helvetica,sans-Serif" font-size="10.00" fill="#ffffff"> Line144 </text>
</g>
<!--  Line142: north_y: &#45;&gt; Line144  -->
<g id="edge44" class="edge">
<title> Line142: north_y: &#45;&gt; Line144 </title>
<path fill="none" stroke="#b03060" d="M1583.806,-229.9551C1583.806,-221.0054 1583.806,-210.047 1583.806,-200.2769"/>
<polygon fill="#b03060" stroke="#b03060" points="1583.806,-193.0904 1586.9561,-200.0903 1583.8061,-196.5904 1583.8061,-200.0904 1583.8061,-200.0904 1583.8061,-200.0904 1583.8061,-196.5904 1580.6561,-200.0904 1583.806,-193.0904 1583.806,-193.0904"/>
</g>
<!--  Line151  -->
<g id="node47" class="node">
<title> Line151 </title>
<ellipse fill="#6495ed" stroke="#6495ed" cx="1714.806" cy="-175" rx="34.2107" ry="18"/>
<text text-anchor="middle" x="1714.806" y="-172" font-family="Helvetica,sans-Serif" font-size="10.00" fill="#ffffff"> Line151 </text>
</g>
<!--  Line149: south: &#45;&gt; Line151  -->
<g id="edge45" class="edge">
<title> Line149: south: &#45;&gt; Line151 </title>
<path fill="none" stroke="#b03060" d="M1714.806,-229.9551C1714.806,-221.0054 1714.806,-210.047 1714.806,-200.2769"/>
<polygon fill="#b03060" stroke="#b03060" points="1714.806,-193.0904 1717.9561,-200.0903 1714.8061,-196.5904 1714.8061,-200.0904 1714.8061,-200.0904 1714.8061,-200.0904 1714.8061,-196.5904 1711.6561,-200.0904 1714.806,-193.0904 1714.806,-193.0904"/>
</g>
<!--  Line158  -->
<g id="node48" class="node">
<title> Line158 </title>
<ellipse fill="#6495ed" stroke="#6495ed" cx="1846.806" cy="-175" rx="34.2107" ry="18"/>
<text text-anchor="middle" x="1846.806" y="-172" font-family="Helvetica,sans-Serif" font-size="10.00" fill="#ffffff"> Line158 </text>
</g>
<!--  Line156: south_y: &#45;&gt; Line158  -->
<g id="edge46" class="edge">
<title> Line156: south_y: &#45;&gt; Line158 </title>
<path fill="none" stroke="#b03060" d="M1846.806,-229.9551C1846.806,-221.0054 1846.806,-210.047 1846.806,-200.2769"/>
<polygon fill="#b03060" stroke="#b03060" points="1846.806,-193.0904 1849.9561,-200.0903 1846.8061,-196.5904 1846.8061,-200.0904 1846.8061,-200.0904 1846.8061,-200.0904 1846.8061,-196.5904 1843.6561,-200.0904 1846.806,-193.0904 1846.806,-193.0904"/>
</g>
<!--  Line165  -->
<g id="node49" class="node">
<title> Line165 </title>
<ellipse fill="#6495ed" stroke="#6495ed" cx="1976.806" cy="-175" rx="34.2107" ry="18"/>
<text text-anchor="middle" x="1976.806" y="-172" font-family="Helvetica,sans-Serif" font-size="10.00" fill="#ffffff"> Line165 </text>
</g>
<!--  Line163: west: &#45;&gt; Line165  -->
<g id="edge47" class="edge">
<title> Line163: west: &#45;&gt; Line165 </title>
<path fill="none" stroke="#b03060" d="M1976.806,-229.9551C1976.806,-221.0054 1976.806,-210.047 1976.806,-200.2769"/>
<polygon fill="#b03060" stroke="#b03060" points="1976.806,-193.0904 1979.9561,-200.0903 1976.8061,-196.5904 1976.8061,-200.0904 1976.8061,-200.0904 1976.8061,-200.0904 1976.8061,-196.5904 1973.6561,-200.0904 1976.806,-193.0904 1976.806,-193.0904"/>
</g>
<!--  Line172  -->
<g id="node50" class="node">
<title> Line172 </title>
<ellipse fill="#6495ed" stroke="#6495ed" cx="2104.806" cy="-175" rx="34.2107" ry="18"/>
<text text-anchor="middle" x="2104.806" y="-172" font-family="Helvetica,sans-Serif" font-size="10.00" fill="#ffffff"> Line172 </text>
</g>
<!--  Line170: west_y: &#45;&gt; Line172  -->
<g id="edge48" class="edge">
<title> Line170: west_y: &#45;&gt; Line172 </title>
<path fill="none" stroke="#b03060" d="M2104.806,-229.9551C2104.806,-221.0054 2104.806,-210.047 2104.806,-200.2769"/>
<polygon fill="#b03060" stroke="#b03060" points="2104.806,-193.0904 2107.9561,-200.0903 2104.8061,-196.5904 2104.8061,-200.0904 2104.8061,-200.0904 2104.8061,-200.0904 2104.8061,-196.5904 2101.6561,-200.0904 2104.806,-193.0904 2104.806,-193.0904"/>
</g>
<!--  Line179  -->
<g id="node51" class="node">
<title> Line179 </title>
<ellipse fill="#6495ed" stroke="#6495ed" cx="2231.806" cy="-175" rx="34.2107" ry="18"/>
<text text-anchor="middle" x="2231.806" y="-172" font-family="Helvetica,sans-Serif" font-size="10.00" fill="#ffffff"> Line179 </text>
</g>
<!--  Line177: east: &#45;&gt; Line179  -->
<g id="edge49" class="edge">
<title> Line177: east: &#45;&gt; Line179 </title>
<path fill="none" stroke="#b03060" d="M2231.806,-229.9551C2231.806,-221.0054 2231.806,-210.047 2231.806,-200.2769"/>
<polygon fill="#b03060" stroke="#b03060" points="2231.806,-193.0904 2234.9561,-200.0903 2231.8061,-196.5904 2231.8061,-200.0904 2231.8061,-200.0904 2231.8061,-200.0904 2231.8061,-196.5904 2228.6561,-200.0904 2231.806,-193.0904 2231.806,-193.0904"/>
</g>
<!--  Line186  -->
<g id="node52" class="node">
<title> Line186 </title>
<ellipse fill="#6495ed" stroke="#6495ed" cx="2357.806" cy="-175" rx="34.2107" ry="18"/>
<text text-anchor="middle" x="2357.806" y="-172" font-family="Helvetica,sans-Serif" font-size="10.00" fill="#ffffff"> Line186 </text>
</g>
<!--  Line184: east_y: &#45;&gt; Line186  -->
<g id="edge50" class="edge">
<title> Line184: east_y: &#45;&gt; Line186 </title>
<path fill="none" stroke="#b03060" d="M2357.806,-229.9551C2357.806,-221.0054 2357.806,-210.047 2357.806,-200.2769"/>
<polygon fill="#b03060" stroke="#b03060" points="2357.806,-193.0904 2360.9561,-200.0903 2357.8061,-196.5904 2357.8061,-200.0904 2357.8061,-200.0904 2357.8061,-200.0904 2357.8061,-196.5904 2354.6561,-200.0904 2357.806,-193.0904 2357.806,-193.0904"/>
</g>
</g>
</svg>
